<?xml version="1.0" encoding="UTF-8" standalone="no"?>
<svg
   width="456"
   height="456"
   viewBox="0 0 456 456"
   version="1.1"
   id="svg8"
   inkscape:version="1.3.1 (91b66b0783, 2023-11-16)"
   sodipodi:docname="appiconfg.svg"
   xmlns:inkscape="http://www.inkscape.org/namespaces/inkscape"
   xmlns:sodipodi="http://sodipodi.sourceforge.net/DTD/sodipodi-0.dtd"
   xmlns="http://www.w3.org/2000/svg"
   xmlns:svg="http://www.w3.org/2000/svg"
   xmlns:rdf="http://www.w3.org/1999/02/22-rdf-syntax-ns#"
   xmlns:cc="http://creativecommons.org/ns#"
   xmlns:dc="http://purl.org/dc/elements/1.1/">
  <defs
     id="defs2">
    <filter
       height="1.0087837"
       y="-0.0065756144"
       width="1.0102948"
       x="-0.0085163333"
       id="filter1877"
       style="color-interpolation-filters:sRGB"
       inkscape:collect="always">
      <feGaussianBlur
         id="feGaussianBlur1879"
         stdDeviation="0.048559174"
         inkscape:collect="always" />
    </filter>
    <filter
       height="1.0035323"
       y="-0.0017661559"
       width="1.0015876"
       x="-0.00079379335"
       id="filter1889"
       style="color-interpolation-filters:sRGB"
       inkscape:collect="always">
      <feGaussianBlur
         id="feGaussianBlur1891"
         stdDeviation="0.016676479"
         inkscape:collect="always" />
    </filter>
  </defs>
  <sodipodi:namedview
     id="base"
     pagecolor="#ffffff"
     bordercolor="#666666"
     borderopacity="1.0"
     inkscape:pageopacity="0.0"
     inkscape:pageshadow="2"
     inkscape:zoom="0.84248938"
     inkscape:cx="-355.4941"
     inkscape:cy="548.96834"
     inkscape:document-units="mm"
     inkscape:current-layer="layer1"
     inkscape:document-rotation="0"
     showgrid="false"
     inkscape:window-width="3840"
     inkscape:window-height="2071"
     inkscape:window-x="2551"
     inkscape:window-y="-9"
     inkscape:window-maximized="1"
     inkscape:showpageshadow="2"
     inkscape:pagecheckerboard="0"
     inkscape:deskcolor="#d1d1d1" />
  <metadata
     id="metadata5">
    <rdf:RDF>
      <cc:Work
         rdf:about="">
        <dc:format>image/svg+xml</dc:format>
        <dc:type
           rdf:resource="http://purl.org/dc/dcmitype/StillImage" />
      </cc:Work>
    </rdf:RDF>
  </metadata>
  <g
     inkscape:label="Calque 1"
     inkscape:groupmode="layer"
     id="layer1"
     transform="translate(-81.947968,-79.653161)">
    <g
       id="g1"
       transform="matrix(0.59049,0,0,0.59049,116.06992,121.36131)">
      <g
         style="filter:url(#filter1877)"
         id="g1713"
         transform="matrix(4.594973,0,0,4.5949731,-209.5329,-266.97401)">
        <path
           sodipodi:nodetypes="ccc"
           inkscape:connector-curvature="0"
           id="path4529"
           d="m 82.53985,147.64656 c 2.67735,-15.368 12.6269,-22.23639 15.87419,-11.68759 3.16637,5.0553 6.45083,9.83509 10.98982,11.68759"
           style="fill:none;fill-rule:evenodd;stroke:#80860d;stroke-width:0.965;stroke-linecap:butt;stroke-linejoin:miter;stroke-miterlimit:4;stroke-dasharray:none;stroke-opacity:1" />
        <path
           sodipodi:nodetypes="cc"
           inkscape:connector-curvature="0"
           id="path4531"
           d="m 127.67159,157.4153 c 9.81438,-8.50927 -6.86015,-8.33355 -18.62147,-9.76874"
           style="fill:none;fill-rule:evenodd;stroke:#80860d;stroke-width:0.973004;stroke-linecap:butt;stroke-linejoin:miter;stroke-miterlimit:4;stroke-dasharray:none;stroke-opacity:1" />
        <path
           sodipodi:nodetypes="cc"
           inkscape:connector-curvature="0"
           id="path4533"
           d="m 121.78922,158.46195 c 4.57943,-2.28777 7.88054,-1.45063 9.05555,3.81262"
           style="fill:none;fill-rule:evenodd;stroke:#80860d;stroke-width:0.965;stroke-linecap:butt;stroke-linejoin:miter;stroke-miterlimit:4;stroke-dasharray:none;stroke-opacity:1" />
        <path
           inkscape:connector-curvature="0"
           id="path4539"
           d="m 90.313024,132.40295 2.836038,-37.725834 8.014898,0.374144 -2.034551,42.21552"
           style="fill:none;fill-rule:evenodd;stroke:#80860d;stroke-width:0.970155;stroke-linecap:butt;stroke-linejoin:miter;stroke-miterlimit:4;stroke-dasharray:none;stroke-opacity:1" />
        <path
           sodipodi:nodetypes="cc"
           inkscape:connector-curvature="0"
           id="path4541"
           d="m 93.063281,94.548707 c 3.188544,-3.542831 2.502933,-13.328178 5.555102,-14.309916"
           style="fill:none;fill-rule:evenodd;stroke:#80860d;stroke-width:0.985514;stroke-linecap:butt;stroke-linejoin:miter;stroke-miterlimit:4;stroke-dasharray:none;stroke-opacity:1" />
        <path
           sodipodi:nodetypes="cc"
           inkscape:connector-curvature="0"
           id="path4543"
           d="m 101.16584,95.043658 c 1.58391,-2.30768 2.36614,-9.024539 3.33042,-14.740189"
           style="fill:none;fill-rule:evenodd;stroke:#80860d;stroke-width:0.965;stroke-linecap:butt;stroke-linejoin:miter;stroke-miterlimit:4;stroke-dasharray:none;stroke-opacity:1" />
        <path
           sodipodi:nodetypes="cccc"
           inkscape:connector-curvature="0"
           id="path4545"
           d="m 98.389156,80.303469 h 6.078974 l 4.90041,3.33042 c 5.49322,-0.6932 10.29497,-0.50246 12.34407,3.20707"
           style="fill:none;fill-rule:evenodd;stroke:#80860d;stroke-width:0.967782;stroke-linecap:butt;stroke-linejoin:miter;stroke-miterlimit:4;stroke-dasharray:none;stroke-opacity:1" />
        <path
           inkscape:connector-curvature="0"
           id="path4547"
           d="m 109.36854,83.633889 0.0353,64.012671"
           style="fill:none;fill-rule:evenodd;stroke:#80860d;stroke-width:0.965;stroke-linecap:butt;stroke-linejoin:miter;stroke-miterlimit:4;stroke-dasharray:none;stroke-opacity:1" />
        <path
           sodipodi:nodetypes="cc"
           inkscape:connector-curvature="0"
           id="path4549"
           d="m 119.23645,84.373979 c 1.91005,14.581169 4.6942,29.124341 10.36131,43.542161"
           style="fill:none;fill-rule:evenodd;stroke:#80860d;stroke-width:0.965;stroke-linecap:butt;stroke-linejoin:miter;stroke-miterlimit:4;stroke-dasharray:none;stroke-opacity:1" />
        <path
           sodipodi:nodetypes="cc"
           inkscape:connector-curvature="0"
           id="path4551"
           d="m 121.64175,86.840959 c 1.50491,11.756259 4.45853,24.774291 11.03973,40.951831"
           style="fill:none;fill-rule:evenodd;stroke:#80860d;stroke-width:0.965;stroke-linecap:butt;stroke-linejoin:miter;stroke-miterlimit:4;stroke-dasharray:none;stroke-opacity:1" />
        <path
           inkscape:connector-curvature="0"
           id="path4553"
           d="m 126.9758,128.02111 6.57734,-0.48984"
           style="fill:none;fill-rule:evenodd;stroke:#80860d;stroke-width:0.975181;stroke-linecap:butt;stroke-linejoin:miter;stroke-miterlimit:4;stroke-dasharray:none;stroke-opacity:1" />
        <path
           style="fill:none;fill-rule:evenodd;stroke:#80860d;stroke-width:0.965;stroke-linecap:butt;stroke-linejoin:miter;stroke-miterlimit:4;stroke-dasharray:none;stroke-opacity:1"
           d="m 121.64175,86.840959 c 1.50491,11.756259 4.45853,24.774291 11.03973,40.951831"
           id="path4555"
           inkscape:connector-curvature="0"
           sodipodi:nodetypes="cc" />
        <path
           sodipodi:nodetypes="cc"
           inkscape:connector-curvature="0"
           id="path4557"
           d="m 121.64553,86.588978 c 1.50388,11.828009 4.45547,24.925482 11.03215,41.201762"
           style="fill:none;fill-rule:evenodd;stroke:#80860d;stroke-width:0.967607;stroke-linecap:butt;stroke-linejoin:miter;stroke-miterlimit:4;stroke-dasharray:none;stroke-opacity:1" />
        <path
           inkscape:connector-curvature="0"
           id="path4559"
           d="m 111.21877,120.39185 5.67405,0.0617"
           style="fill:none;fill-rule:evenodd;stroke:#80860d;stroke-width:0.965;stroke-linecap:butt;stroke-linejoin:miter;stroke-miterlimit:4;stroke-dasharray:none;stroke-opacity:1" />
        <path
           sodipodi:nodetypes="cc"
           inkscape:connector-curvature="0"
           id="path4561"
           d="m 116.92283,108.77695 0.0673,12.17171"
           style="fill:none;fill-rule:evenodd;stroke:#80860d;stroke-width:1.04376;stroke-linecap:butt;stroke-linejoin:miter;stroke-miterlimit:4;stroke-dasharray:none;stroke-opacity:1" />
        <path
           sodipodi:nodetypes="ccc"
           inkscape:connector-curvature="0"
           id="path4563"
           d="m 111.23509,120.85982 0.12958,-11.70372 c 2.22551,-1.89604 4.05595,-1.32236 5.76662,0"
           style="fill:none;fill-rule:evenodd;stroke:#80860d;stroke-width:1.00722;stroke-linecap:butt;stroke-linejoin:miter;stroke-miterlimit:4;stroke-dasharray:none;stroke-opacity:1" />
        <path
           sodipodi:nodetypes="cc"
           inkscape:connector-curvature="0"
           id="path4565"
           d="m 113.62408,120.39185 c -0.013,-3.8167 -0.42853,-8.1583 3.20707,-7.2159"
           style="fill:none;fill-rule:evenodd;stroke:#80860d;stroke-width:0.965;stroke-linecap:butt;stroke-linejoin:miter;stroke-miterlimit:4;stroke-dasharray:none;stroke-opacity:1" />
        <path
           inkscape:connector-curvature="0"
           id="path4567"
           d="m 120.22324,148.63875 4.81061,-16.03536 6.78419,0.30838 -4.62559,17.02214"
           style="fill:none;fill-rule:evenodd;stroke:#80860d;stroke-width:0.965;stroke-linecap:butt;stroke-linejoin:miter;stroke-miterlimit:4;stroke-dasharray:none;stroke-opacity:1" />
        <path
           sodipodi:nodetypes="cccc"
           inkscape:connector-curvature="0"
           id="path4569"
           d="m 131.81804,132.91177 c 0.72279,-3.20399 1.31721,-4.4825 1.87682,-5.23878 7.12313,4.00766 10.1425,8.01531 11.19816,12.02296 2.76496,6.89437 2.83785,16.81438 2.89869,26.89006"
           style="fill:none;fill-rule:evenodd;stroke:#80860d;stroke-width:0.965;stroke-linecap:butt;stroke-linejoin:miter;stroke-miterlimit:4;stroke-dasharray:none;stroke-opacity:1" />
        <path
           sodipodi:nodetypes="cc"
           inkscape:connector-curvature="0"
           id="path4571"
           d="m 125.0406,132.60532 c 0.55101,-1.89084 1.17072,-3.6599 2.20593,-4.69242"
           style="fill:none;fill-rule:evenodd;stroke:#80860d;stroke-width:0.988779;stroke-linecap:butt;stroke-linejoin:miter;stroke-miterlimit:4;stroke-dasharray:none;stroke-opacity:1" />
        <path
           sodipodi:nodetypes="cc"
           inkscape:connector-curvature="0"
           id="path4575"
           d="m 141.73989,168.56214 c 1.66203,-1.71274 5.35705,-2.14792 10.29963,-2.22028"
           style="fill:none;fill-rule:evenodd;stroke:#80860d;stroke-width:0.965;stroke-linecap:butt;stroke-linejoin:miter;stroke-miterlimit:4;stroke-dasharray:none;stroke-opacity:1" />
        <path
           sodipodi:nodetypes="ccc"
           inkscape:connector-curvature="0"
           id="path4577"
           d="m 139.89739,169.29969 c 0.33202,-1.97184 0.87359,-3.99448 -4.07052,-4.68726 2.57598,-3.67465 -7.98138,-1.67808 -12.08819,-2.46698"
           style="fill:none;fill-rule:evenodd;stroke:#80860d;stroke-width:0.965;stroke-linecap:butt;stroke-linejoin:miter;stroke-miterlimit:4;stroke-dasharray:none;stroke-opacity:1" />
        <path
           style="fill:none;fill-rule:evenodd;stroke:#80860d;stroke-width:0.965;stroke-linecap:butt;stroke-linejoin:miter;stroke-miterlimit:4;stroke-dasharray:none;stroke-opacity:1"
           d="m 143.72121,167.23358 c -3.99632,-18.81422 -12.17706,-16.5854 -12.87644,-4.95901 0.15232,-2.00033 0.4515,-6.36405 2.98049,-8.35439 3.48326,-2.74136 9.38902,-1.40415 12.11623,12.9742"
           id="path4579"
           inkscape:connector-curvature="0"
           sodipodi:nodetypes="ccsc" />
      </g>
      <g
         style="font-style:normal;font-weight:normal;font-size:12.3538px;line-height:98.9%;font-family:sans-serif;letter-spacing:0px;word-spacing:0px;fill:#793c1b;fill-opacity:1;stroke:none;stroke-width:0.308846px;stroke-linecap:butt;stroke-linejoin:miter;stroke-opacity:1;filter:url(#filter1889)"
         id="text5218"
         transform="matrix(4.761646,0,0,4.4341347,-123.23734,-317.85852)"
         aria-label="Sauver le Guirbaden">
        <path
           id="path1376"
           style="font-style:normal;font-variant:normal;font-weight:normal;font-stretch:normal;font-size:8.71542px;line-height:48.5%;font-family:'Viner Hand ITC';-inkscape-font-specification:'Viner Hand ITC';fill:#793c1b;fill-opacity:1;stroke-width:0.308846px"
           d="m 65.649037,168.94864 0.102134,0.0809 0.157456,-0.017 0.174479,0.20001 v 0.0766 l 0.106389,0.0979 0.05958,0.20001 -0.02553,0.12341 h 0.02553 l -0.05958,0.66813 -0.106389,0.1149 -0.174479,0.0851 -0.200012,0.25533 -0.174479,0.0426 -0.157456,0.15745 -0.217034,-0.10639 -0.05958,-0.15745 0.09362,-0.11065 -0.05958,-0.14043 0.102134,-0.20001 q -0.02553,-0.17874 -0.05958,-0.20001 l -0.217034,0.0255 -0.157457,-0.0596 -0.25959,0.0596 0.02553,0.0979 -0.18299,0.1532 h -0.08086 l -0.825582,0.51492 -0.140434,0.14044 -0.106389,0.017 -0.03404,0.0809 -0.217034,0.0596 0.01702,0.0426 -0.157456,0.0596 -0.357469,0.27235 -0.05958,0.0596 0.08511,0.0553 q 0.0383,0.0255 0.1149,0.14469 l 0.09788,-0.0596 0.05958,0.0766 0.157456,-0.0596 0.119156,0.0596 0.22129,-0.017 0.685148,0.017 0.06383,0.0808 h 0.18299 l 0.140434,0.10214 0.251079,-0.0851 h 0.09362 l 0.08937,0.0596 h 0.114901 l 0.0766,0.0638 h 0.123412 l 0.05958,0.0596 0.06809,0.0128 q 0.02979,0.004 0.123412,0.0851 h 0.0766 q 0.07234,-0.0426 0.165967,-0.0638 l 0.114901,0.10639 0.05958,0.11064 0.340446,0.22129 0.331935,0.29364 -0.0766,0.14043 0.136178,0.12341 -0.09362,0.29364 -0.02553,0.28087 -0.08937,0.14469 q -0.04256,0.0723 -0.102134,0.24682 l -0.18299,0.0979 -0.0383,0.10213 -0.731959,0.4979 -0.136178,-0.0255 -0.01702,0.0766 -0.795792,0.26385 -0.119157,0.0936 h -0.238312 l -0.05958,0.0596 h -0.123412 l -0.05107,0.0638 -0.123412,-0.0426 -0.340446,0.11916 -0.01702,-0.017 -0.157456,0.017 -0.276612,0.0638 -0.472369,-0.0468 -0.217035,0.0638 -0.276612,-0.0638 -0.05532,-0.004 -0.05532,-0.004 -0.04681,-0.004 q -0.01702,-0.004 -0.08511,-0.0468 -0.06383,-0.0426 -0.1149,-0.0766 l -0.157457,-0.22129 0.01702,-0.29363 0.0766,-0.017 0.08086,-0.0809 0.119156,-0.0596 q 0.07234,-0.0894 0.200012,-0.17447 h 0.455347 v 0.14043 l -0.01702,0.0511 0.05958,0.0596 -0.140434,0.13193 q -0.02553,0.0255 -0.0766,0.14894 l 0.03404,0.0766 0.217034,0.0979 0.06383,-0.0979 0.157456,-0.034 0.217034,0.0511 0.259591,0.0255 0.157456,-0.0766 h 0.140434 l 0.191501,-0.0426 0.0766,-0.0426 h 0.157456 l 0.10639,-0.0213 0.365979,-0.14469 0.119157,-0.0255 0.09362,-0.0553 q 0.0383,-0.0255 0.238312,-0.0596 l 0.06383,-0.0596 0.05958,0.017 0.357469,-0.20001 0.09362,-0.19576 0.18299,-0.0511 -0.0085,-0.11064 0.07234,-0.0979 -0.03404,-0.034 0.09362,-0.24257 -0.01702,-0.0979 0.05107,-0.14043 -0.102134,-0.20002 0.04256,-0.15745 -0.106389,-0.23406 -0.102134,-0.0426 q -0.05958,-0.13192 -0.140434,-0.20001 l -0.217034,0.0426 -0.06809,-0.15746 q -0.01277,-0.0255 -0.106389,-0.10639 -0.09788,-0.017 -0.217034,-0.0766 l -0.140434,0.14044 -0.05958,-0.0638 -0.22129,-0.0511 -0.119157,-0.12342 -0.06383,0.0638 -0.110645,-0.0426 -0.08086,0.0766 -0.18299,-0.0766 -0.0766,0.11916 -0.191501,-0.0936 -0.02553,0.0936 h -0.157456 l -0.03404,-0.0596 -0.182989,-0.034 -0.157457,0.0766 -0.187245,-0.0213 q -0.02979,-0.004 -0.153201,-0.0809 l -0.09788,0.0426 -0.0766,-0.0426 -0.01702,0.0766 -0.242567,0.0255 -0.02128,-0.0426 -0.09362,0.017 -0.157456,-0.14043 -0.04256,-0.10639 q -0.01702,-0.0511 -0.09788,-0.12767 0.102133,-0.0808 0.174478,-0.15745 h 0.04256 l 0.08086,-0.14044 h 0.0766 l 0.09788,-0.11064 0.217034,-0.14044 0.217034,-0.20001 0.123412,-0.0809 0.157456,-0.0596 0.140434,-0.14044 0.119157,-0.0596 0.131922,-0.1149 0.200012,-0.11915 0.18299,-0.20001 0.208523,-0.11491 q 0.05107,-0.0511 0.140434,-0.0808 l 0.02553,-0.0596 0.255334,-0.18299 h 0.0766 l 0.106389,-0.13192 q 0.131923,-0.0681 0.217035,-0.13618 l 0.01702,-0.0638 0.09362,-0.0426 0.01702,-0.034 q 0.195756,-0.14469 0.323424,-0.26385 h 0.03404 v -0.034 h 0.06383 l 0.01702,-0.0596 0.18299,-0.0596 z" />
        <path
           id="path1378"
           style="font-style:normal;font-variant:normal;font-weight:normal;font-stretch:normal;font-size:8.71542px;line-height:48.5%;font-family:'Viner Hand ITC';-inkscape-font-specification:'Viner Hand ITC';fill:#793c1b;fill-opacity:1;stroke-width:0.308846px"
           d="m 70.500393,171.0509 q 0.02979,-0.009 0.165968,0.009 0.136178,0.017 0.174479,0.0596 l 0.144689,-0.0341 0.08086,0.009 0.05958,0.1149 -0.0085,0.0851 q -0.08511,0.0681 -0.114901,0.14895 h -0.04255 l -0.04681,0.0511 q -0.02128,0.0213 -0.178734,0.0723 l -0.0085,0.79154 0.06809,0.40853 0.0085,0.42131 0.06383,0.51492 0.268101,0.73196 q 0.07234,0.0809 0.09788,0.12767 0.212778,-0.11916 0.268101,-0.11916 0.174478,-0.20001 0.225545,-0.20852 v -0.0468 l 0.48088,-0.40854 0.0085,-0.0766 q 0.04681,-0.009 0.182989,-0.16597 l 0.157457,0.0341 0.08511,0.1915 -0.03404,0.16597 -0.08511,-0.0341 -0.04256,0.0936 h -0.08086 q -0.04681,0.12767 -0.140434,0.20853 v 0.0468 l -0.234056,0.21703 -0.04256,0.11065 q -0.08086,0.0553 -0.272357,0.14894 l -0.03405,0.0638 -0.0085,-0.0213 -0.05107,0.0894 -0.1149,0.034 -0.01702,0.0596 h -0.05958 l 0.02553,0.0638 -0.06809,0.13192 -0.06383,0.017 q 0.0085,0.0681 -0.140434,0.25108 l -0.200012,0.009 -0.04256,0.12341 -0.123412,0.034 q -0.140434,-0.0383 -0.225545,-0.17447 l -0.285124,-0.46386 -0.272357,-0.60855 0.02553,-0.22555 -0.05958,-0.20001 0.04256,-0.009 q -0.123412,-0.24682 -0.123412,-0.37449 l 0.02128,-0.15746 -0.131923,-0.0808 -0.08937,0.0553 v -0.0213 l -0.04256,0.0213 -0.1149,0.29364 -0.05958,-0.0255 -0.01702,0.0596 -0.04256,-0.017 v 0.0383 h -0.01702 q -0.0043,0.0255 -0.123412,0.21703 l -0.03404,-0.017 -0.02553,0.18299 -0.08937,0.0468 q -0.08937,0.0468 -0.1149,0.11065 l -0.03404,0.0851 0.0383,0.0511 -0.09788,0.0341 -0.04256,0.17448 -0.07234,0.0383 0.02128,0.034 q -0.102133,0.0766 -0.165967,0.10214 l -0.0383,0.0638 -0.03405,-0.0468 -0.05958,0.14894 h -0.05107 l -0.07234,0.24683 -0.0766,0.0255 -0.0085,0.12767 H 68.21516 l -0.123412,0.28087 -0.05958,0.0426 h -0.05107 l -0.01702,0.0809 -0.272357,0.10213 -0.285123,0.009 -0.123412,-0.80856 0.05107,-0.10639 0.01277,-0.0851 q 0.0043,-0.034 0.102133,-0.25533 l -0.01702,-0.0596 q 0.0766,-0.17448 0.102134,-0.20852 l -0.03404,-0.017 0.08086,-0.20852 0.0043,-0.0809 q 0.0043,-0.034 0.06383,-0.15745 -0.03404,-0.20427 -0.06809,-0.23406 l 0.03404,-0.0596 0.110645,0.017 q 0.09788,-0.13193 0.123412,-0.14044 l 0.02553,-0.0766 h 0.01702 l -0.05958,-0.0894 0.05107,-0.22554 0.03405,0.017 q 0.05107,-0.13192 0.06383,-0.13192 l -0.01702,-0.11065 0.119156,-0.22129 v -0.0596 l -0.02553,-0.0511 0.174478,-0.37449 0.200012,-0.27236 q 0.102134,-0.0894 0.174479,-0.20001 l 0.148945,-0.0596 0.200012,-0.20852 0.191501,-0.1149 h 0.114901 l 0.09362,-0.0255 h 0.131923 l 0.05958,-0.0979 0.123412,0.009 h 0.123412 v -0.0341 q 0.05107,0.004 0.110645,0.0426 l 0.131923,-0.0511 0.09788,0.0255 0.02553,-0.034 0.102134,0.034 z m -1.097938,0.67238 -0.10639,0.017 -0.131922,-0.009 -0.04256,0.0766 v 0.0638 q -0.06809,0.0341 -0.148945,0.0596 l -0.0766,0.1915 q -0.05958,0.25534 -0.07234,0.25959 h -0.04255 l -0.05958,0.14044 -0.02979,0.11915 q -0.01277,0.0553 -0.08511,0.0894 l -0.04256,0.14894 -0.06809,0.12767 q -0.0383,0.0724 -0.0383,0.1532 v 0.034 l -0.04256,-0.034 v 0.0681 h -0.02553 l 0.0085,0.0426 -0.03405,0.0723 -0.05107,0.22555 -0.08937,0.18299 -0.01702,0.25959 -0.02553,0.0383 h -0.01702 l -0.01702,0.0766 0.03404,0.034 -0.04256,0.15746 h -0.01702 l 0.01702,0.0511 h -0.06383 l 0.0085,0.31491 0.0383,0.14894 h 0.01702 l 0.09362,-0.0894 0.246824,-0.34896 0.44258,-0.58301 0.131923,-0.14044 0.293634,-0.47662 0.306402,-0.40854 0.02553,-0.0894 -0.05958,-0.0766 0.110645,-0.1915 0.02553,-0.14469 q 0.0043,-0.0213 0.07234,-0.11064 l 0.0085,-0.34045 -0.114901,-0.009 H 69.628 l -0.123411,-0.0851 -0.02553,0.0426 z" />
        <path
           id="path1380"
           style="font-style:normal;font-variant:normal;font-weight:normal;font-stretch:normal;font-size:8.71542px;line-height:48.5%;font-family:'Viner Hand ITC';-inkscape-font-specification:'Viner Hand ITC';fill:#793c1b;fill-opacity:1;stroke-width:0.308846px"
           d="m 74.887892,171.19133 0.131923,0.15746 q -0.102134,0.18724 -0.157456,0.34044 l -0.157456,0.0936 -0.03405,0.0979 0.03405,0.0255 v 0.0766 l 0.01702,0.034 -0.03404,0.0468 v 0.0936 l -0.05958,0.14043 -0.05958,0.0426 q -0.06809,0.18299 -0.09788,0.31491 l -0.09362,0.0766 -0.02979,0.14043 0.02979,0.017 -0.106389,0.12341 v 0.0936 l -0.03404,0.0468 0.05107,0.23406 -0.05107,0.20001 0.03404,0.23406 0.04256,0.17447 v 0.15746 l 0.03404,0.20001 -0.03404,0.0809 v 0.23406 q 0.123411,-0.0511 0.174478,-0.1149 l 0.08086,0.017 v -0.0596 l 0.200012,-0.1915 0.09362,-0.0596 v -0.0468 l 0.157456,-0.13618 0.04256,-0.14043 q 0.102134,-0.0511 0.157456,-0.1149 l 0.01702,0.034 v -0.0766 l 0.08937,-0.0766 v 0.0426 l 0.03404,-0.0596 h 0.05958 v -0.0468 l 0.01702,-0.0341 h 0.08086 l 0.01702,-0.0596 -0.01702,-0.0979 0.293634,-0.24257 q 0.04681,-0.034 0.05958,-0.0724 l 0.04681,-0.10213 q 0.08086,-0.0468 0.157456,-0.0596 l 0.01702,-0.0638 0.04256,-0.0341 h 0.05532 v -0.0766 l 0.02553,0.0596 v -0.0766 q 0.0383,-0.0723 0.0766,-0.0894 l 0.01702,-0.0511 0.200012,-0.21704 h 0.08086 l 0.0766,-0.0808 0.08086,-0.16597 q 0.204268,-0.22555 0.234057,-0.29364 l 0.123412,-0.0213 0.110645,-0.20002 -0.03405,0.10639 0.157456,-0.12341 0.09362,0.0638 0.123412,-0.0809 h 0.157456 l 0.0766,0.0638 0.02979,0.1532 -0.07234,0.0681 q -0.03405,0.0298 -0.09362,0.17023 l 0.02553,0.0766 -0.04256,0.14043 v 0.0596 l -0.06383,0.0638 v 0.11065 l -0.0766,0.0255 v 0.22129 l -0.01702,0.0936 0.01702,0.0979 -0.08086,0.0766 0.04681,0.10639 -0.04681,0.0766 0.04681,0.1915 -0.04681,0.10639 v 0.74898 l 0.04681,0.15746 0.0766,0.0596 0.157457,-0.017 0.0766,0.0766 -0.01702,0.0979 -0.102134,0.0426 -0.0383,0.0979 -0.0766,0.017 -0.05958,0.10213 h -0.06383 l -0.03405,0.0979 -0.18299,0.0596 -0.05958,0.1149 -0.238312,0.0426 -0.09362,0.0979 -0.200012,0.0426 -0.09788,-0.0638 -0.0766,-0.25108 0.0766,-0.10639 -0.04256,-0.0766 0.05958,-0.0766 0.08086,-0.017 0.09362,-0.59579 v -0.0766 l -0.05107,-0.10639 0.08086,-0.034 -0.02979,-0.0766 0.02979,-0.10639 -0.08086,-0.034 -0.04256,-0.0596 0.0766,-0.0638 v -0.0936 l 0.04681,-0.10639 q -0.114901,-0.0894 -0.157456,-0.0936 l -0.02553,-0.20427 h -0.08086 l -0.05958,-0.034 -0.08086,0.14043 -0.434069,0.47237 -0.08086,0.0596 -0.01702,0.0596 -0.33619,0.39151 -0.0383,0.0809 -0.357468,0.41704 -0.434069,0.47237 -0.131923,0.0724 q -0.02553,0.0128 -0.08511,0.11064 -0.18299,0.0681 -0.200012,0.0766 v 0.0426 l -0.05532,-0.0255 v 0.12341 l -0.119156,0.0766 -0.157456,-0.017 -0.157456,0.1149 -0.02553,-0.0596 -0.09788,-0.0553 -0.01702,-0.10213 q -0.06383,-0.0468 -0.102134,-0.14043 l -0.09788,-0.0341 -0.03404,-0.0979 -0.05958,-0.68089 0.05958,-0.25108 h 0.03404 v -0.18299 l 0.09788,-0.0766 -0.01702,-0.0809 0.05958,-0.14043 h 0.0766 l 0.01702,-0.0511 -0.01702,-0.11915 0.06383,-0.0213 0.01702,-0.13618 0.01702,-0.017 -0.05107,-0.0638 0.05107,-0.11916 v -0.14043 l 0.02553,-0.29789 h 0.03404 v -0.14044 l 0.08086,-0.0936 -0.06383,-0.0809 0.06383,-0.10213 -0.02128,-0.0511 0.08086,-0.15745 -0.123411,-0.14044 -0.0766,0.017 -0.01702,0.0766 -0.114901,0.0213 -0.04256,0.10214 H 73.3814 l -0.05958,-0.0766 -0.472368,0.15745 -0.123412,-0.20427 0.157456,-0.1532 q 0.123412,-0.0511 0.157456,-0.15745 l 0.140434,-0.0255 v -0.0383 h 0.123412 l 0.157456,-0.017 0.102134,-0.18299 0.157457,0.0468 0.174478,-0.0468 q 0.01277,-0.034 0.05958,-0.0681 h 0.140434 l -0.01702,-0.0255 0.03404,-0.017 h 0.09788 l 0.02553,-0.0468 q 0.09362,-0.0341 0.191501,-0.13618 h 0.0766 l 0.06383,-0.0809 0.05958,-0.017 0.05958,0.017 0.08086,-0.0426 0.04256,0.0426 0.03405,-0.0766 z" />
        <path
           id="path1382"
           style="font-style:normal;font-variant:normal;font-weight:normal;font-stretch:normal;font-size:8.71542px;line-height:48.5%;font-family:'Viner Hand ITC';-inkscape-font-specification:'Viner Hand ITC';fill:#793c1b;fill-opacity:1;stroke-width:0.308846px"
           d="m 83.930992,170.09339 0.05958,0.0936 -0.01702,0.0426 0.123411,0.0638 0.09362,-0.0255 0.0383,0.10213 -0.02128,0.0979 -0.0766,0.0596 q -0.0383,0.17448 -0.05958,0.22555 l 0.02553,0.0894 -0.08937,0.017 -0.05107,0.18299 -0.0766,0.034 v 0.0809 l -0.10639,0.0596 0.01702,0.18299 v 0.0766 l -0.05107,0.0383 q -0.02553,0.1149 -0.123412,0.33619 l -0.217034,0.49791 -0.174479,0.29789 -0.106389,0.034 v 0.13192 l -0.408536,0.6426 -0.110645,0.28086 -0.306401,0.40003 -0.123412,0.0979 v 0.0596 l -0.131923,0.0425 h -0.04256 l -0.140434,0.21704 -0.0766,-0.017 -0.131923,0.18299 q -0.161711,0.0936 -0.234056,0.16597 h -0.08511 l -0.08086,0.10639 q -0.238312,0.18299 -0.25959,0.23406 l 0.05958,0.0766 -0.123411,0.0468 q -0.03405,0.034 -0.157457,0.11064 v 0.10639 l -0.05958,0.0341 h -0.05107 l -0.06809,0.0894 q -0.0383,0.0511 -0.0766,0.0724 l -0.119156,0.0553 -0.05958,-0.017 -0.0766,0.034 -0.1149,-0.13617 q -0.02979,-0.11491 -0.05958,-0.13193 v -0.28087 l -0.140434,-0.5745 0.0766,-0.14043 -0.217035,-0.35747 0.05958,-0.1532 q -0.0085,-0.0809 -0.0766,-0.15746 l 0.05958,-0.0979 -0.05958,-0.11915 h 0.03404 l -0.01702,-0.0979 0.01702,-0.10639 0.04256,-0.017 v -0.13618 l -0.1532,-0.12341 h 0.05958 l 0.01702,-0.034 -0.01702,-0.12341 -0.08937,-0.017 -0.03404,-0.0979 0.03404,-0.0255 v -0.23406 l 0.02979,-0.034 -0.06383,-0.0255 -0.04256,-0.15745 -0.05107,-0.0341 -0.02553,0.017 -0.06383,-0.0468 -0.0766,0.0468 h -0.08086 l -0.05958,0.0936 -0.0766,-0.017 -0.08086,0.0979 -0.0766,-0.017 0.02553,0.0596 -0.10639,0.0596 -0.110645,-0.10214 -0.04681,-0.17448 0.174479,-0.22129 0.08937,0.0213 0.234056,-0.22129 0.114901,-0.0596 q 0.148945,-0.0979 0.165967,-0.0979 h 0.03405 v 0.0808 h 0.04256 l -0.02553,-0.0596 0.25959,-0.0979 0.06383,0.017 -0.02553,-0.017 h 0.0766 l 0.04256,-0.017 -0.05958,-0.0255 h 0.04256 l 0.06383,-0.0809 0.110645,-0.034 0.04256,-0.0511 h 0.1149 v -0.0426 h 0.04256 l 0.0383,-0.0638 h 0.119157 l 0.08085,0.0809 q 0.07234,0.0213 0.0766,0.034 l -0.03405,0.14044 0.03405,0.13618 -0.114901,0.23831 0.02128,0.25959 -0.02128,0.0979 0.05532,0.21703 v 0.43407 l 0.05107,0.37875 0.0043,0.0766 q 0.0043,0.0255 0.04681,0.14043 l 0.174478,0.43407 0.04256,0.0426 v 0.14044 l 0.0383,0.1149 -0.08086,0.13618 0.06383,0.0979 0.510669,-0.45535 0.238312,-0.1915 0.08511,-0.25959 0.131923,-0.034 -0.01702,-0.0426 0.05958,-0.0553 0.04256,0.017 0.0383,-0.20001 q 0.127668,-0.14895 0.310657,-0.3745 l 0.08086,-0.12341 0.05958,-0.0681 0.01277,-0.0553 q 0.0043,-0.0213 0.102134,-0.14894 0.102134,-0.12767 0.157456,-0.20853 0.05958,-0.0851 0.153201,-0.31065 l 0.106389,-0.0426 0.04256,-0.16597 0.06383,-0.0766 q 0.05532,-0.11064 0.174478,-0.23831 v -0.0936 l 0.05958,-0.0809 0.01277,-0.0808 q 0.0043,-0.0383 0.0383,-0.0979 l 0.07234,-0.10639 q 0.03405,-0.0553 0.09362,-0.0979 l 0.05958,-0.15746 -0.102134,-0.15745 -0.09788,0.0468 -0.05958,-0.0255 -0.09788,0.16171 h -0.102134 l -0.09788,0.13192 h -0.09362 l -0.04256,-0.034 -0.09788,0.0766 -0.123412,0.017 -0.05958,-0.0596 0.106389,-0.0936 v -0.0809 q 0.06809,-0.0851 0.0766,-0.11915 l 0.09788,-0.0553 0.119156,-0.20001 0.03405,-0.017 0.08086,-0.0851 q 0.06809,-0.0426 0.140434,-0.13193 h 0.0766 l 0.0766,-0.14043 0.04681,0.034 0.119156,-0.034 0.09788,0.017 0.0766,-0.017 z" />
        <path
           id="path1384"
           style="font-style:normal;font-variant:normal;font-weight:normal;font-stretch:normal;font-size:8.71542px;line-height:48.5%;font-family:'Viner Hand ITC';-inkscape-font-specification:'Viner Hand ITC';fill:#793c1b;fill-opacity:1;stroke-width:0.308846px"
           d="m 86.177935,171.34879 0.10639,0.017 h 0.01702 l -0.01702,0.0425 h 0.03404 l 0.05958,0.0596 0.200012,0.017 h 0.200013 l 0.1149,0.0638 h 0.04256 l 0.06383,0.21703 -0.08937,0.0766 v 0.0809 l 0.140434,0.14043 -0.01702,0.39152 h -0.05958 l -0.02128,0.0766 h -0.01702 v 0.12341 l 0.08086,0.017 0.03404,0.0426 -0.05107,0.0808 v 0.0596 l -0.106389,0.0511 -0.0766,0.0638 -0.22129,0.11916 q -0.08937,0.0936 -0.153201,0.14043 l -0.06383,0.17448 -0.37449,0.14895 -0.374491,-0.009 0.01702,0.0936 h -0.0766 l -0.01702,0.0255 -0.18299,0.0383 -0.01702,-0.0638 -0.06383,0.0255 v 0.0383 l -0.157456,0.0596 -0.05958,0.17448 0.08086,0.21703 v 0.10639 l 0.04256,0.0936 q -0.08511,0.25108 -0.123411,0.26385 l 0.02553,0.0766 -0.04256,0.017 0.09788,0.0426 v 0.13192 l 0.08511,0.0596 q 0.212779,-0.0638 0.25959,-0.0936 l 0.06383,0.0596 0.01702,-0.017 q 0.174479,-0.017 0.276613,-0.0425 l 0.02979,-0.0511 h 0.102133 l 0.08086,-0.009 0.102134,0.0511 -0.02553,-0.034 h 0.08511 l 0.10639,-0.0894 0.123411,-0.009 h -0.02553 l 0.119156,-0.0511 0.03405,0.0255 0.06383,-0.0596 h 0.08511 l 0.08086,-0.0809 q 0.09362,-0.004 0.302146,-0.11064 v -0.0468 l 0.123411,-0.0341 0.131923,-0.1915 0.140434,0.017 q 0.07234,0.0681 0.170223,0.0809 l 0.06383,0.0596 -0.09788,0.18299 0.01702,0.1149 -0.136179,0.0766 -0.01702,0.0426 -0.204267,0.0255 -0.110645,0.1149 -0.123412,0.009 -0.03405,0.0979 -0.165967,-0.017 -0.05107,0.11915 -0.131923,-0.017 -0.05107,0.0596 q -0.14469,0.0553 -0.148945,0.0638 l -0.05958,-0.034 -0.09788,0.0936 h -0.140434 l -0.08511,0.0426 h -0.05107 l -0.06383,0.0553 q -0.110645,0.0298 -0.225546,0.0936 l -0.05958,-0.0425 H 85.58641 l -0.05107,0.0425 -0.04681,-0.017 -0.05958,0.017 -0.01702,-0.017 -0.04256,0.0979 h -0.114901 l -0.09362,0.0511 q -0.04681,0.0255 -0.204268,0.0426 l -0.04256,0.0426 h -0.0766 l -0.114901,0.017 -0.08511,0.10639 -0.114901,-0.0426 -0.05958,0.0766 -0.04681,-0.0128 q -0.01702,-0.004 -0.170223,-0.16171 l 0.01702,-0.10213 -0.01702,-0.0553 0.01702,-0.10214 -0.06383,-0.15745 0.02553,-0.12342 -0.04256,-0.1915 0.04256,-0.15745 -0.05958,-0.24257 -0.01702,-0.017 0.01702,-0.12341 0.140434,-0.0511 v -0.0851 l -0.05958,-0.0213 0.01702,-0.11065 -0.0383,-0.0638 0.02128,-0.10213 0.05958,-0.0341 -0.01702,-0.0979 0.01702,-0.16596 0.03404,-0.017 0.05958,-0.20001 0.140434,-0.25108 0.123411,-0.0468 0.01702,-0.13618 -0.01702,-0.0383 0.01702,-0.0766 0.0766,-0.0425 0.04681,-0.14044 h -0.106389 v -0.0511 l 0.04256,-0.0638 -0.01702,-0.0596 0.01702,-0.0596 h 0.01702 v -0.14044 l 0.140434,-0.017 0.05958,-0.12341 0.29789,-0.33194 h 0.05958 q 0.05107,-0.0808 0.131923,-0.13617 l 0.05958,0.017 q 0.05958,-0.0213 0.140434,-0.14044 h 0.04256 l 0.08086,-0.0511 h 0.03404 l 0.05958,-0.0894 z m -0.102134,0.72344 -0.148945,0.0511 -0.1149,-0.0511 q -0.102134,0.0851 -0.165968,0.11916 -0.01277,0.11065 -0.08937,0.18725 -0.07235,0.0766 -0.102134,0.0766 h -0.0766 l 0.05107,0.0936 q -0.04681,0.0851 -0.123412,0.26384 l -0.06809,-0.017 -0.02553,0.11065 0.02553,0.15745 0.08511,0.0468 q 0.0383,0.0213 0.212778,0.0511 l 0.136179,-0.0894 0.280868,-0.0255 0.148945,-0.21703 0.200012,-0.16597 0.02553,-0.31491 -0.06809,-0.10214 -0.0085,-0.14894 h -0.09788 z" />
        <path
           id="path1386"
           style="font-style:normal;font-variant:normal;font-weight:normal;font-stretch:normal;font-size:8.71542px;line-height:48.5%;font-family:'Viner Hand ITC';-inkscape-font-specification:'Viner Hand ITC';fill:#793c1b;fill-opacity:1;stroke-width:0.308846px"
           d="m 89.773897,171.31049 q 0.102134,0.0468 0.1149,0.14043 -0.1149,0.12341 -0.1149,0.35747 v 0.0638 q -0.04256,0.0426 -0.04256,0.0851 0,0.0468 0.01702,0.0681 h 0.02553 l -0.02553,0.12341 -0.0766,0.017 -0.03404,0.14043 h -0.02553 q 0.01277,0.0724 0.05958,0.0936 0.106389,-0.009 0.340446,-0.2681 l 0.01702,0.017 0.434069,-0.32342 0.08086,-0.017 0.200012,-0.11065 0.157456,-0.0468 q 0.148946,-0.12766 0.468114,-0.13618 0.144689,0.0851 0.191501,0.0851 0.05532,0 0.05532,0.034 0,0.0298 -0.0383,0.17448 l -0.18299,0.10639 -0.102134,0.12767 -0.29789,0.14043 -0.110645,-0.0511 h -0.08086 v 0.017 q -0.306401,0.11916 -0.55748,0.17448 -0.119156,0.23406 -0.438325,0.61281 -0.319168,0.37874 -0.327679,0.5745 l -0.02553,0.61706 -0.165968,0.27661 0.01702,0.38726 q -0.01702,0.0681 -0.05958,0.14469 -0.0383,0.0723 -0.05532,0.12766 -0.01702,0.0553 -0.119156,0.21278 l -0.0766,0.0213 q -0.02979,0.004 -0.229801,0.16171 h -0.217034 l -0.09788,0.0341 -0.140434,-0.13618 q 0,-0.12341 0.08937,-0.3064 0.08937,-0.18299 0.102133,-0.2681 0.05958,-0.42131 0.22129,-0.49791 l 0.04256,-0.12341 -0.01702,-0.0766 0.03404,-0.0638 -0.114901,-0.1915 v -0.0596 l -0.02553,-0.37449 q 0.05958,-0.0426 0.08086,-0.0426 0.03405,0 0.0766,0.0426 l 0.165967,-0.21704 -0.02553,-0.15745 0.04256,-0.18299 -0.102134,-0.0809 v -0.43407 l -0.157457,0.12342 h -0.09788 l -0.140434,0.0936 -0.136178,-0.034 -0.140434,0.017 q -0.114901,0 -0.114901,-0.0766 0,-0.12767 0.127667,-0.30215 0.127668,-0.17448 0.387258,-0.31917 v -0.017 l 0.1149,-0.017 q 0.06809,-0.12342 0.157457,-0.12342 0.05107,-0.0213 0.1149,-0.0808 0.06383,-0.0638 0.285124,-0.17022 l 0.110645,0.0596 0.08937,-0.0426 0.131923,-0.0341 z" />
        <path
           id="path1388"
           style="font-style:normal;font-variant:normal;font-weight:normal;font-stretch:normal;font-size:8.71542px;line-height:48.5%;font-family:'Viner Hand ITC';-inkscape-font-specification:'Viner Hand ITC';fill:#793c1b;fill-opacity:1;stroke-width:0.308846px"
           d="m 64.061707,186.34559 q -0.03404,0 -0.03404,0.14043 -0.05958,0.0681 -0.1149,0.13618 -0.05107,0.0681 -0.102134,0.0979 l -0.06383,-0.017 q -0.06383,0.0511 -0.0766,0.12342 -0.0085,0.017 -0.04256,0.017 -0.02553,0 -0.0383,-0.0468 -0.05107,0.10639 -0.136178,0.10639 v 0.0425 h -0.0383 l -0.04256,-0.0255 q -0.0766,0.0553 -0.0766,0.12341 h -0.06383 l 0.01702,-0.0255 h -0.03404 v 0.0426 l -0.05958,0.0766 h -0.0766 v 0.017 h -0.04681 v 0.0298 l -0.0766,0.017 v 0.017 l -0.03404,-0.017 -0.01702,0.034 -0.02979,-0.034 -0.174478,0.0936 0.02128,0.017 h -0.0383 q -0.01702,0.0809 -0.102133,0.0809 -0.02553,0.0596 -0.08086,0.0596 l -0.01702,0.0255 q -0.09788,0 -0.178734,0.10213 -0.0766,0.10214 -0.131923,0.1149 l -0.02979,-0.0426 -0.01702,0.0426 0.04681,0.017 h -0.06383 v 0.0213 q -0.0766,0.017 -0.200012,0.13618 -0.09362,-0.0255 -0.123412,-0.0766 l -0.251079,-0.4979 q 0.03404,-0.0213 0.03404,-0.0681 0,-0.0638 -0.03404,-0.13192 h 0.01702 l -0.0766,-0.21704 h 0.04256 l -0.04256,-0.0511 0.01702,-0.0298 q 0.02553,0 0.02553,-0.0255 v -0.0255 l 0.03404,0.017 v -0.0426 l 0.01702,-0.0596 0.08937,-0.0383 -0.02553,-0.017 q 0.05532,-0.0894 0.06809,-0.24683 0.01277,-0.15745 0.03404,-0.18724 l -0.04256,-0.0766 v -0.10639 l 0.04256,-0.14044 0.01702,0.0255 q 0.03404,-0.0511 0.06383,-0.15746 -0.0085,-0.0128 -0.0085,-0.0511 0,-0.0426 0.0043,-0.0511 l 0.08086,-0.0809 -0.02553,-0.0936 0.05958,-0.0766 v -0.0298 l 0.02553,0.0298 v -0.0809 l -0.02553,-0.0255 h 0.02553 l 0.05532,-0.15746 v -0.017 l 0.02553,0.017 0.03405,-0.25108 h 0.01702 l 0.08937,-0.26384 -0.02979,0.017 0.140434,-0.37449 h -0.01702 l 0.140434,-0.1915 v -0.10214 l 0.03404,-0.0979 q -0.03404,-0.009 -0.0766,-0.0766 l 0.119156,-0.20002 v -0.20426 l -0.0766,-0.0511 q 0,-0.0213 0.03404,-0.0766 -0.02128,-0.0724 -0.03404,-0.0894 l -0.200012,-0.29363 -0.03405,-0.017 q -0.06809,0 -0.123411,0.0426 h -0.02553 q -0.106389,0 -0.157456,-0.10639 l 0.04256,-0.14043 -0.01702,-0.0511 0.114901,-0.0766 -0.01702,-0.0255 q 0.136178,-0.0298 0.1915,-0.12767 0.05958,-0.0979 0.102134,-0.1532 0.05532,0 0.09362,-0.017 0.04256,-0.017 0.06383,-0.0468 0.02128,-0.034 0.04256,-0.0681 h 0.06383 l 0.0766,-0.11915 V 181.89 l 0.05958,-0.0511 q 0.05532,0 0.08086,-0.0766 l -0.02553,-0.0468 0.04256,0.0213 0.05958,-0.0383 q 0.02128,-0.0638 0.08086,-0.0894 0.06383,-0.0298 0.174478,-0.0936 0.01277,-0.0511 0.102134,-0.0766 v -0.017 l 0.09788,-0.017 v -0.0255 l 0.310657,-0.17448 v -0.017 q 0.0383,-0.0638 0.10639,-0.0638 0.1149,0 0.1149,0.22555 v 0.0894 h -0.01702 v 0.0596 q 0,0.20002 -0.157456,0.28087 -0.0085,0.0596 -0.05958,0.0979 -0.04681,0.0383 -0.140434,0.1532 h 0.01702 q -0.06809,0.0426 -0.08511,0.18299 -0.01277,0.14044 -0.05532,0.25534 l -0.01702,-0.0213 0.01702,0.0808 h -0.01702 l -0.01702,0.017 0.03404,0.034 q -0.04681,0.0426 -0.05107,0.0979 -0.0043,0.0511 -0.01702,0.0511 h -0.01277 l -0.0766,0.0979 q 0.0766,0.0511 0.0766,0.11065 0,0.034 -0.05107,0.0426 v 0.0468 l -0.02553,-0.017 v 0.21704 h -0.0766 l -0.0383,0.12767 0.02128,0.12341 -0.04681,0.0979 v 0.0255 h -0.03404 l 0.01702,0.0936 -0.03404,-0.017 -0.05958,0.37449 -0.123412,0.39151 -0.03404,0.15746 q -0.06383,0.0766 -0.06383,0.12341 0,0.0383 0.02128,0.12341 -0.14469,0.31066 -0.174479,0.60855 l -0.04681,0.017 -0.01702,0.0255 q -0.01277,0.0851 -0.04256,0.13192 l -0.01702,0.383 0.04256,0.13192 -0.02553,0.25959 0.123411,0.25534 q -0.0766,0 -0.09788,0.0596 h -0.02553 l 0.0766,0.0766 -0.01702,0.0638 h 0.04681 l 0.0766,0.0766 0.0766,-0.0766 0.09788,-0.0426 q 0.04256,-0.0213 0.123412,-0.0979 h 0.09362 v -0.0341 l 0.01702,0.017 q 0.127667,-0.13192 0.263845,-0.14043 l -0.01702,-0.017 0.136179,-0.0426 v -0.034 q 0.123411,-0.0255 0.1915,-0.12341 0.153201,-0.0255 0.204268,-0.11491 h 0.03404 l 0.119156,-0.0851 z" />
        <path
           id="path1390"
           style="font-style:normal;font-variant:normal;font-weight:normal;font-stretch:normal;font-size:8.71542px;line-height:48.5%;font-family:'Viner Hand ITC';-inkscape-font-specification:'Viner Hand ITC';fill:#793c1b;fill-opacity:1;stroke-width:0.308846px"
           d="m 66.619308,183.56669 0.10639,0.017 h 0.01702 l -0.01702,0.0426 h 0.03404 l 0.05958,0.0596 0.200012,0.017 h 0.200012 l 0.114901,0.0638 h 0.04256 l 0.06383,0.21703 -0.08937,0.0766 v 0.0809 l 0.140434,0.14043 -0.01702,0.39151 h -0.05958 l -0.02128,0.0766 h -0.01702 v 0.12342 l 0.08086,0.017 0.03404,0.0426 -0.05107,0.0809 v 0.0596 l -0.106389,0.0511 -0.0766,0.0638 -0.22129,0.11915 q -0.08937,0.0936 -0.153201,0.14044 l -0.06383,0.17448 -0.37449,0.14894 -0.374491,-0.009 0.01702,0.0936 h -0.0766 l -0.01702,0.0255 -0.182989,0.0383 -0.01702,-0.0638 -0.06383,0.0255 v 0.0383 l -0.157457,0.0596 -0.05958,0.17447 0.08086,0.21704 v 0.10639 l 0.04256,0.0936 q -0.08511,0.25108 -0.123412,0.26385 l 0.02553,0.0766 -0.04256,0.017 0.09788,0.0426 v 0.13192 l 0.08511,0.0596 q 0.212779,-0.0638 0.25959,-0.0936 l 0.06383,0.0596 0.01702,-0.017 q 0.174479,-0.017 0.276612,-0.0426 l 0.02979,-0.0511 h 0.102134 l 0.08086,-0.009 0.102134,0.0511 -0.02553,-0.034 h 0.08511 l 0.106389,-0.0894 0.123412,-0.009 h -0.02553 l 0.119156,-0.0511 0.03404,0.0255 0.06383,-0.0596 h 0.08511 l 0.08086,-0.0809 q 0.09362,-0.004 0.302145,-0.11064 v -0.0468 l 0.123412,-0.034 0.131923,-0.1915 0.140434,0.017 q 0.07235,0.0681 0.170223,0.0809 l 0.06383,0.0596 -0.09788,0.18299 0.01702,0.1149 -0.136179,0.0766 -0.01702,0.0426 -0.204268,0.0255 -0.110645,0.1149 -0.123411,0.009 -0.03405,0.0979 -0.165967,-0.017 -0.05107,0.11916 -0.131923,-0.017 -0.05107,0.0596 q -0.14469,0.0553 -0.148945,0.0638 l -0.05958,-0.0341 -0.09788,0.0936 H 66.63633 l -0.08511,0.0425 h -0.05107 l -0.06383,0.0553 q -0.110645,0.0298 -0.225545,0.0936 l -0.05958,-0.0426 h -0.123412 l -0.05107,0.0426 -0.04681,-0.017 -0.05958,0.017 -0.01702,-0.017 -0.04255,0.0979 h -0.114901 l -0.09362,0.0511 q -0.04681,0.0255 -0.204267,0.0426 l -0.04256,0.0426 h -0.0766 l -0.114901,0.017 -0.08511,0.10638 -0.114901,-0.0426 -0.05958,0.0766 -0.04681,-0.0128 q -0.01702,-0.004 -0.170223,-0.16171 l 0.01702,-0.10213 -0.01702,-0.0553 0.01702,-0.10213 -0.06383,-0.15746 0.02553,-0.12341 -0.04256,-0.1915 0.04256,-0.15745 -0.05958,-0.24257 -0.01702,-0.017 0.01702,-0.12341 0.140434,-0.0511 v -0.0851 l -0.05958,-0.0213 0.01702,-0.11065 -0.0383,-0.0638 0.02128,-0.10214 0.05958,-0.034 -0.01702,-0.0979 0.01702,-0.16597 0.03404,-0.017 0.05958,-0.20001 0.140434,-0.25108 0.123412,-0.0468 0.01702,-0.13618 -0.01702,-0.0383 0.01702,-0.0766 0.0766,-0.0426 0.04681,-0.14043 h -0.106389 v -0.0511 l 0.04256,-0.0638 -0.01702,-0.0596 0.01702,-0.0596 h 0.01702 v -0.14043 l 0.140434,-0.017 0.05958,-0.12341 0.29789,-0.33194 h 0.05958 q 0.05107,-0.0808 0.131923,-0.13618 l 0.05958,0.017 q 0.05958,-0.0213 0.140434,-0.14043 h 0.04256 l 0.08086,-0.0511 h 0.03404 l 0.05958,-0.0894 z m -0.102134,0.72345 -0.148945,0.0511 -0.1149,-0.0511 q -0.102134,0.0851 -0.165968,0.11916 -0.01277,0.11064 -0.08937,0.18724 -0.07234,0.0766 -0.102134,0.0766 h -0.0766 l 0.05107,0.0936 q -0.04681,0.0851 -0.123412,0.26384 l -0.06809,-0.017 -0.02553,0.11065 0.02553,0.15745 0.08511,0.0468 q 0.0383,0.0213 0.212779,0.0511 l 0.136179,-0.0894 0.280868,-0.0255 0.148945,-0.21704 0.200012,-0.16596 0.02553,-0.31492 -0.06809,-0.10213 -0.0085,-0.14894 h -0.09788 z" />
        <path
           id="path1392"
           style="font-style:normal;font-variant:normal;font-weight:normal;font-stretch:normal;font-size:8.71542px;line-height:48.5%;font-family:'Viner Hand ITC';-inkscape-font-specification:'Viner Hand ITC';fill:#793c1b;fill-opacity:1;stroke-width:0.308846px"
           d="m 73.700586,181.77084 0.102134,0.017 0.09788,0.0341 0.217035,-0.017 0.123411,0.0426 0.01702,0.0511 0.01702,-0.017 0.04256,0.0979 h 0.05958 l 0.131923,0.21704 -0.05107,0.10639 0.01702,0.1915 v 0.20001 l -0.09788,0.10213 0.05532,0.11491 0.119156,-0.0341 0.09788,0.017 v 0.0936 l -0.05107,0.12341 0.170223,0.37449 -0.05532,0.0553 q -0.02128,0.0255 -0.204267,0.10213 l -0.03405,0.14044 0.01702,0.15745 -0.0766,0.13618 q -0.187245,0.0809 -0.29789,0.15746 l -0.03404,0.0809 -0.165967,-0.0553 q -0.127668,0.11916 -0.157457,0.22129 l -0.200012,0.017 -0.08086,-0.14044 0.02979,-0.12341 -0.08086,-0.17448 0.114901,-0.27661 -0.01702,-0.12341 0.03404,-0.21704 v -0.21703 l 0.04256,-0.34896 -0.0766,-0.26384 -0.04681,-0.0766 h -0.03404 l -0.119156,-0.0596 H 73.1048 q -0.276613,0.12341 -0.293635,0.15745 h -0.0383 l -0.651104,0.65111 -0.08085,0.18299 -0.05958,0.034 -0.01702,0.10639 -0.200012,0.21703 -0.05958,0.29789 -0.08937,0.0979 q -0.05107,0.0596 -0.06809,0.1149 l -0.04681,0.16172 h -0.09362 v 0.17447 l -0.05958,0.0426 -0.06383,0.39151 -0.110645,0.0979 -0.01702,0.11916 0.03404,0.0979 -0.06383,0.16596 0.02979,0.31492 -0.08937,0.0766 -0.03404,0.15745 0.05958,0.15746 0.01702,0.20001 0.22129,0.39151 0.05958,0.14044 0.217035,0.11915 h -0.140434 v 0.12342 l 0.174478,0.034 0.400025,-0.034 0.05532,0.017 q 0.127667,-0.0596 0.217034,-0.14044 h 0.04256 l 0.09788,-0.17447 0.319169,-0.16597 0.08086,-0.0638 q 0.03404,-0.0298 0.217034,-0.10639 v -0.0468 l 0.140434,-0.034 q 0.01277,-0.0638 0.119156,-0.14895 0.110645,-0.0851 0.195757,-0.0851 0.09362,-0.17873 0.200012,-0.26384 v -0.23406 l 0.357468,-0.35747 0.127667,-0.0425 0.323424,-0.21704 0.114901,-0.017 0.140434,0.10213 0.05958,-0.0851 0.174478,0.0851 -0.1149,0.31492 -0.0766,0.017 0.01702,0.93197 0.04255,0.0596 v 0.22129 l -0.05958,0.11064 0.01702,0.20001 -0.04256,0.0638 v 0.1915 l -0.208523,0.5745 -0.09788,0.37449 -0.05958,0.0979 v 0.0766 l -0.06383,0.12341 q -0.131923,0.18299 -0.136179,0.21704 l -0.02128,-0.0426 -0.01702,0.0596 -0.136178,0.0936 -0.06383,0.12341 -0.0766,0.0809 -0.08086,0.17448 -0.119156,0.13618 -0.06383,0.12341 q -0.114901,0.0894 -0.234057,0.23405 l -0.157456,0.0426 0.01702,0.1149 q -0.119156,0.0894 -0.191501,0.10639 l -0.02553,0.0511 v 0.0766 l -0.157456,0.0638 -0.09362,0.14044 -0.08086,0.017 -0.02553,0.0851 -0.451092,0.25108 -0.08085,0.0808 -0.05958,-0.017 -0.157456,0.17448 -0.0766,-0.017 -0.140434,0.0936 -0.06383,0.18299 -0.127667,0.034 -0.140434,-0.017 -0.25959,0.12341 -0.114901,-0.0596 -0.123412,0.15745 -0.09362,0.017 -0.04681,-0.0383 -0.09788,0.0511 q -0.05532,0.0298 -0.110645,0.0341 l -0.144689,0.0128 -0.09788,-0.12341 0.0766,-0.17448 0.0383,0.017 0.05958,-0.0766 0.04256,0.017 q 0.153201,-0.0341 0.217034,-0.0766 l 0.01702,0.0255 0.08086,-0.0426 h 0.05958 q 0.02979,-0.0426 0.195757,-0.11064 l 0.161712,-0.0638 h 0.08086 l 0.05958,-0.0638 0.174478,-0.0596 0.391513,-0.20001 0.123412,-0.1149 0.18299,-0.0766 0.0766,-0.0638 0.08086,-0.0426 0.293635,-0.25108 v -0.0426 l 0.255335,-0.25534 0.102133,-0.0766 0.03405,-0.12341 0.263846,-0.2681 v -0.10639 l 0.268101,-0.41705 v -0.0638 l 0.08937,-0.0341 0.148945,-0.46811 -0.01702,-0.27236 0.0766,-0.10638 q -0.02553,-0.35747 -0.09788,-0.46812 l 0.08086,-0.32342 0.03404,-0.017 -0.05958,-0.15746 -0.09788,-0.0596 -0.09362,-0.29789 h -0.08086 q -0.110645,0.0766 -0.165968,0.18299 l -0.174478,0.0341 -0.0766,0.0979 -0.0766,0.0255 -0.06383,0.0809 -0.451091,0.32768 -0.421302,0.22129 -0.05958,0.0596 -0.314913,0.12341 -0.04255,-0.0468 -0.268102,0.0468 -0.140434,-0.0808 -0.04256,-0.10214 -0.09788,0.0596 -0.182989,-0.15746 -0.01702,-0.15745 -0.09362,-0.0511 q -0.04681,-0.0255 -0.123412,-0.13192 l 0.01702,-0.11065 -0.131923,-0.14043 0.03405,-0.0979 -0.0766,-0.24257 0.140434,-0.0808 -0.04681,-0.1532 -0.0766,-0.0383 v -0.10214 l 0.123412,-0.23405 -0.09788,-0.12342 0.05107,-0.15745 0.10639,-0.0596 -0.0766,-0.1149 v -0.0596 l 0.09362,-0.18299 -0.01702,-0.15746 0.1149,-0.27235 0.04256,-0.0596 -0.01702,-0.10639 0.234056,-0.59152 h 0.05958 l 0.06383,-0.21704 0.102134,-0.10213 q 0.05532,-0.0553 0.07234,-0.1149 l -0.04681,-0.0979 q 0.06383,-0.0553 0.123412,-0.15746 l 0.04256,-0.017 0.01702,0.017 0.02128,-0.10213 q 0.208523,-0.17874 0.234057,-0.34896 l 0.200012,-0.18299 0.25959,-0.20001 0.0383,-0.0809 q 0.08086,-0.0128 0.25959,-0.17448 l 0.01702,0.017 q 0.242567,-0.21278 0.29789,-0.23406 l 0.251079,-0.0936 0.04256,-0.0468 0.09788,-0.017 0.123412,-0.0766 z" />
        <path
           id="path1394"
           style="font-style:normal;font-variant:normal;font-weight:normal;font-stretch:normal;font-size:8.71542px;line-height:48.5%;font-family:'Viner Hand ITC';-inkscape-font-specification:'Viner Hand ITC';fill:#793c1b;fill-opacity:1;stroke-width:0.308846px"
           d="m 77.968929,183.40924 0.131923,0.15745 q -0.102134,0.18725 -0.157456,0.34045 l -0.157457,0.0936 -0.03404,0.0979 0.03404,0.0255 v 0.0766 l 0.01702,0.034 -0.03404,0.0468 v 0.0936 l -0.05958,0.14044 -0.05958,0.0426 q -0.06809,0.18299 -0.09788,0.31492 l -0.09362,0.0766 -0.02979,0.14043 0.02979,0.017 -0.10639,0.12341 v 0.0936 l -0.03404,0.0468 0.05107,0.23406 -0.05107,0.20001 0.03404,0.23405 0.04256,0.17448 v 0.15746 l 0.03405,0.20001 -0.03405,0.0809 v 0.23405 q 0.123412,-0.0511 0.174479,-0.1149 l 0.08086,0.017 v -0.0596 l 0.200012,-0.1915 0.09362,-0.0596 v -0.0468 l 0.157456,-0.13618 0.04256,-0.14044 q 0.102133,-0.0511 0.157456,-0.1149 l 0.01702,0.0341 v -0.0766 l 0.08937,-0.0766 v 0.0426 l 0.03405,-0.0596 h 0.05958 v -0.0468 l 0.01702,-0.034 h 0.08086 l 0.01702,-0.0596 -0.01702,-0.0979 0.293635,-0.24256 q 0.04681,-0.0341 0.05958,-0.0724 l 0.04681,-0.10213 q 0.08086,-0.0468 0.157457,-0.0596 l 0.01702,-0.0638 0.04256,-0.034 h 0.05532 v -0.0766 l 0.02553,0.0596 v -0.0766 q 0.0383,-0.0724 0.0766,-0.0894 l 0.01702,-0.0511 0.200013,-0.21703 h 0.08085 l 0.0766,-0.0809 0.08086,-0.16596 q 0.204267,-0.22555 0.234056,-0.29364 l 0.123412,-0.0213 0.110645,-0.20001 -0.03404,0.10639 0.157456,-0.12341 0.09362,0.0638 0.123411,-0.0808 h 0.157457 l 0.0766,0.0638 0.02979,0.1532 -0.07234,0.0681 q -0.03404,0.0298 -0.09362,0.17022 l 0.02553,0.0766 -0.04256,0.14044 v 0.0596 l -0.06383,0.0638 v 0.11064 l -0.0766,0.0255 v 0.22129 l -0.01702,0.0936 0.01702,0.0979 -0.08086,0.0766 0.04681,0.10639 -0.04681,0.0766 0.04681,0.1915 -0.04681,0.10639 v 0.74898 l 0.04681,0.15746 0.0766,0.0596 0.157456,-0.017 0.0766,0.0766 -0.01702,0.0979 -0.102134,0.0426 -0.0383,0.0979 -0.0766,0.017 -0.05958,0.10213 h -0.06383 l -0.03404,0.0979 -0.18299,0.0596 -0.05958,0.1149 -0.238313,0.0426 -0.09362,0.0979 -0.200012,0.0426 -0.09788,-0.0638 -0.0766,-0.25107 0.0766,-0.10639 -0.04256,-0.0766 0.05958,-0.0766 0.08086,-0.017 0.09362,-0.59578 v -0.0766 l -0.05107,-0.10639 0.08085,-0.034 -0.02979,-0.0766 0.02979,-0.10639 -0.08085,-0.0341 -0.04256,-0.0596 0.0766,-0.0638 v -0.0936 l 0.04681,-0.10639 q -0.1149,-0.0894 -0.157456,-0.0936 l -0.02553,-0.20427 h -0.08086 l -0.05958,-0.0341 -0.08086,0.14044 -0.434069,0.47237 -0.08086,0.0596 -0.01702,0.0596 -0.336191,0.39152 -0.0383,0.0808 -0.357468,0.41705 -0.434069,0.47237 -0.131923,0.0723 q -0.02553,0.0128 -0.08511,0.11065 -0.18299,0.0681 -0.200013,0.0766 v 0.0426 l -0.05532,-0.0255 v 0.12341 l -0.119156,0.0766 -0.157457,-0.017 -0.157456,0.1149 -0.02553,-0.0596 -0.09788,-0.0553 -0.01702,-0.10213 q -0.06383,-0.0468 -0.102134,-0.14044 l -0.09788,-0.034 -0.03405,-0.0979 -0.05958,-0.68089 0.05958,-0.25108 h 0.03405 v -0.18299 l 0.09788,-0.0766 -0.01702,-0.0809 0.05958,-0.14043 h 0.0766 l 0.01702,-0.0511 -0.01702,-0.11915 0.06383,-0.0213 0.01702,-0.13618 0.01702,-0.017 -0.05107,-0.0638 0.05107,-0.11915 v -0.14044 l 0.02553,-0.29789 h 0.03404 v -0.14043 l 0.08086,-0.0936 -0.06383,-0.0809 0.06383,-0.10213 -0.02128,-0.0511 0.08086,-0.15746 -0.123412,-0.14043 -0.0766,0.017 -0.01702,0.0766 -0.1149,0.0213 -0.04256,0.10213 h -0.140434 l -0.05958,-0.0766 -0.472369,0.15746 -0.123412,-0.20427 0.157457,-0.1532 q 0.123411,-0.0511 0.157456,-0.15746 l 0.140434,-0.0255 v -0.0383 h 0.123412 l 0.157456,-0.017 0.102134,-0.18299 0.157456,0.0468 0.174479,-0.0468 q 0.01277,-0.0341 0.05958,-0.0681 h 0.140434 l -0.01702,-0.0255 0.03404,-0.017 h 0.09788 l 0.02553,-0.0468 q 0.09362,-0.034 0.191501,-0.13618 h 0.0766 l 0.06383,-0.0808 0.05958,-0.017 0.05958,0.017 0.08086,-0.0426 0.04256,0.0426 0.03404,-0.0766 z" />
        <path
           id="path1396"
           style="font-style:normal;font-variant:normal;font-weight:normal;font-stretch:normal;font-size:8.71542px;line-height:48.5%;font-family:'Viner Hand ITC';-inkscape-font-specification:'Viner Hand ITC';fill:#793c1b;fill-opacity:1;stroke-width:0.308846px"
           d="m 84.39485,181.56232 h -0.02553 l -0.157457,0.33619 -0.01702,-0.017 q 0,0.0468 -0.04256,0.0808 v 0.017 q -0.09362,0.14895 -0.234056,0.21704 l -0.03405,-0.017 v 0.034 q -0.165968,-0.0213 -0.25959,-0.0681 -0.08937,-0.0511 -0.136179,-0.16171 -0.04255,-0.1149 -0.08511,-0.23831 0.06383,-0.0894 0.106389,-0.10639 l 0.03404,-0.1149 0.140434,-0.0766 0.0766,-0.16597 0.140434,-0.0766 v 0.0255 l 0.0766,0.0341 q 0.02979,-0.017 0.0383,-0.0255 0.01277,-0.0128 0.02979,-0.0255 0.02128,-0.017 0.102134,-0.034 0.08086,-0.0213 0.123411,-0.0468 l 0.04681,-0.0255 h 0.03404 l 0.06383,0.0979 v 0.13618 l 0.01702,0.12341 z m -0.617059,2.48951 h -0.01702 l -0.03404,0.22129 0.03404,0.0255 -0.05958,0.15746 -0.01702,-0.0298 v 0.0638 q 0,0.18725 -0.157456,0.35747 h 0.03404 v 0.0766 h -0.01702 l 0.01702,0.49791 -0.03404,0.0596 0.01702,0.0809 -0.06383,0.31066 h 0.02128 q 0,0.0851 -0.04256,0.24256 l -0.0383,0.1149 -0.05107,0.566 q -0.01702,0.0851 -0.01702,0.0979 0,0.0766 0.06809,0.0766 0.08086,0 0.178734,-0.0638 l 0.276613,-0.18724 q 0.1149,-0.14044 0.165967,-0.14044 h 0.02553 q 0.07234,-0.034 0.136178,-0.1149 0.06383,-0.0808 0.09788,-0.0936 0.06383,-0.1149 0.114901,-0.1149 0.0043,0 0.03405,0.009 0.02979,0.009 0.157456,0.0298 l 0.03404,0.11915 q 0,0.0979 -0.06809,0.22555 -0.06809,0.12341 -0.110645,0.20852 -0.0383,0.0809 -0.178734,0.13193 v 0.0298 l -0.05958,-0.017 v 0.0596 h -0.0383 q -0.01277,0.1149 -0.119156,0.13192 v 0.0255 H 83.95227 v 0.017 h -0.04256 l -0.1149,0.0766 h -0.03405 l -0.05958,0.0809 -0.174478,0.0255 q -0.02553,0.0511 -0.08086,0.0511 l -0.217035,0.15745 v 0.0341 l -0.106389,-0.017 0.02979,0.0426 -0.140434,0.0341 v 0.0213 h -0.05958 v 0.0596 l -0.06383,0.0426 h -0.01702 v 0.017 q -0.05532,0.15746 -0.157457,0.15746 l -0.05958,-0.017 q -0.05107,-0.15745 -0.174478,-0.31491 0.03404,-0.13618 0.03404,-0.20001 l -0.03404,-0.17448 v -0.0936 q 0,-0.13193 0.02553,-0.27236 l 0.02553,-0.11064 v -0.0213 h -0.0085 q -0.0085,0 -0.0085,-0.009 0,-0.009 0.0383,-0.13618 0.04255,-0.12767 0.04255,-0.33194 0,-0.0511 -0.0383,-0.0596 l 0.05532,-0.11491 v -0.51492 l 0.06809,-0.14895 q 0.03404,-0.0681 0.06809,-0.2681 0.05532,-0.034 0.06383,-0.0638 l -0.03404,-0.0511 0.03404,-0.0851 q -0.06809,-0.13192 -0.157457,-0.13192 H 82.4543 q -0.03404,0.034 -0.03404,0.0766 h -0.02979 q -0.02128,0.1149 -0.110645,0.14043 -0.02128,0.11065 -0.123412,0.13193 l -0.0766,0.12341 h -0.01702 q -0.02979,0.0936 -0.106389,0.0936 -0.08511,0 -0.140434,-0.12341 -0.05107,-0.12341 -0.05107,-0.13618 0,-0.017 0.01702,-0.0383 0.04256,-0.18725 0.263846,-0.31066 v -0.034 q 0.09362,-0.0936 0.191501,-0.14044 h -0.0383 q 0.18299,-0.0383 0.212779,-0.18724 0.03404,-0.1532 0.225545,-0.1532 l 0.05107,0.017 0.106389,-0.0511 h -0.06383 l 0.09788,-0.0638 0.02553,0.017 0.0766,-0.0936 0.02128,0.017 q 0.05107,-0.12341 0.234056,-0.12341 0.04256,0 0.04256,-0.034 v -0.0426 h 0.03405 l -0.01702,-0.017 0.140435,-0.0979 q 0.06809,-0.11916 0.217034,-0.11916 0.09362,0 0.161712,0.0511 0.07235,0.0511 0.07235,0.10213 0,0.0553 -0.05958,0.15746 z" />
        <path
           id="path1398"
           style="font-style:normal;font-variant:normal;font-weight:normal;font-stretch:normal;font-size:8.71542px;line-height:48.5%;font-family:'Viner Hand ITC';-inkscape-font-specification:'Viner Hand ITC';fill:#793c1b;fill-opacity:1;stroke-width:0.308846px"
           d="m 86.76095,183.52839 q 0.102133,0.0468 0.1149,0.14044 -0.1149,0.12341 -0.1149,0.35747 v 0.0638 q -0.04256,0.0426 -0.04256,0.0851 0,0.0468 0.01702,0.0681 h 0.02553 l -0.02553,0.12341 -0.0766,0.017 -0.03405,0.14044 h -0.02553 q 0.01277,0.0723 0.05958,0.0936 0.106389,-0.009 0.340446,-0.2681 l 0.01702,0.017 0.434069,-0.32342 0.08086,-0.017 0.200012,-0.11065 0.157456,-0.0468 q 0.148945,-0.12767 0.468114,-0.13618 0.144689,0.0851 0.191501,0.0851 0.05532,0 0.05532,0.0341 0,0.0298 -0.0383,0.17448 l -0.18299,0.10639 -0.102134,0.12766 -0.29789,0.14044 -0.110645,-0.0511 h -0.08086 v 0.017 q -0.306401,0.11916 -0.55748,0.17448 -0.119157,0.23406 -0.438325,0.6128 -0.319168,0.37875 -0.327679,0.57451 l -0.02553,0.61706 -0.165967,0.27661 0.01702,0.38726 q -0.01702,0.0681 -0.05958,0.14468 -0.0383,0.0724 -0.05532,0.12767 -0.01702,0.0553 -0.119156,0.21278 l -0.0766,0.0213 q -0.02979,0.004 -0.229801,0.16171 h -0.217034 l -0.09788,0.0341 -0.140434,-0.13618 q 0,-0.12341 0.08937,-0.3064 0.08937,-0.18299 0.102133,-0.26811 0.05958,-0.4213 0.22129,-0.4979 l 0.04256,-0.12341 -0.01702,-0.0766 0.03404,-0.0638 -0.1149,-0.1915 v -0.0596 l -0.02553,-0.37449 q 0.05958,-0.0426 0.08086,-0.0426 0.03404,0 0.0766,0.0426 l 0.165967,-0.21704 -0.02553,-0.15745 0.04256,-0.18299 -0.102133,-0.0809 v -0.43407 l -0.157457,0.12341 h -0.09788 l -0.140434,0.0936 -0.136178,-0.0341 -0.140434,0.017 q -0.114901,0 -0.114901,-0.0766 0,-0.12766 0.127667,-0.30214 0.127668,-0.17448 0.387258,-0.31917 v -0.017 l 0.1149,-0.017 q 0.06809,-0.12341 0.157457,-0.12341 0.05107,-0.0213 0.1149,-0.0808 0.06383,-0.0638 0.285124,-0.17023 l 0.110645,0.0596 0.08937,-0.0425 0.131923,-0.0341 z" />
        <path
           id="path1400"
           style="font-style:normal;font-variant:normal;font-weight:normal;font-stretch:normal;font-size:8.71542px;line-height:48.5%;font-family:'Viner Hand ITC';-inkscape-font-specification:'Viner Hand ITC';fill:#793c1b;fill-opacity:1;stroke-width:0.308846px"
           d="m 90.395211,179.76646 0.136179,0.0426 0.01702,0.0766 v 0.0638 l 0.0383,0.0936 -0.0383,0.0426 0.01702,0.1149 -0.0766,0.10639 v 0.11065 l -0.0766,0.017 0.01702,0.16597 -0.114901,0.13192 -0.217034,0.55748 -0.140434,0.55748 -0.05958,0.17448 -0.01702,-0.0426 -0.04681,0.25959 -0.01702,-0.017 0.0383,0.37449 -0.08086,0.1149 v 0.0851 l 0.04256,0.0979 -0.04256,0.017 -0.03404,-0.0341 0.01702,0.11065 -0.01702,0.0638 -0.04256,0.0851 q -0.01702,0.0341 -0.06383,0.28938 l -0.01702,0.017 0.123412,0.12341 -0.01702,0.0936 q -0.08937,0.034 -0.165967,0.14043 h 0.0766 v 0.0255 h 0.08937 l 0.157457,0.0511 q 0.174478,-0.0936 0.293634,-0.0936 l 0.174479,0.017 0.123412,-0.017 0.01702,0.0426 0.140434,-0.0255 0.01702,0.0426 0.157457,-0.0596 0.119156,0.0426 -0.01702,0.017 h 0.06383 l 0.191501,-0.11916 0.0766,0.0255 v -0.0468 h 0.246824 l 0.37449,0.0979 0.0766,0.10639 0.01702,-0.0298 q 0.174479,0.0383 0.357469,0.12341 l 0.01702,0.0426 0.123412,0.0979 -0.123412,0.34044 -0.03404,0.0511 h -0.05958 l -0.01702,0.0596 v 0.18299 l -0.02979,-0.0426 -0.01702,0.0809 -0.119157,0.0596 -0.0383,0.17447 -0.119156,0.10214 0.02553,0.0383 h -0.04256 l 0.01702,0.017 -0.06383,0.0426 -0.01702,0.0766 q -0.119156,0.0426 -0.251079,0.34044 l -0.04256,-0.0255 0.01702,0.0426 -0.08086,0.017 -0.01702,0.0809 -0.04255,-0.017 -0.01702,0.0766 -0.1149,0.0979 v 0.0426 l -0.04256,0.0766 -0.05958,-0.017 0.02553,0.0341 -0.123411,0.0298 v 0.0511 l -0.157457,0.12342 0.01702,0.0426 -0.04256,0.0511 h -0.05107 l -0.02553,-0.034 -0.03405,0.0596 h -0.04681 l 0.02553,0.0553 -0.05958,0.0255 -0.04256,0.11064 -0.03404,0.0255 v 0.0383 h -0.08086 l -0.04256,0.0766 -0.03404,-0.017 q -0.05958,0.14895 -0.140434,0.20002 v 0.034 H 90.2718 l 0.01702,0.0638 -0.05107,-0.0383 -0.02553,0.0553 h -0.06383 l -0.03404,0.13618 -0.05958,-0.017 -0.0383,0.0809 q -0.157456,0.0851 -0.18299,0.11916 l 0.02128,0.0553 h -0.0383 v 0.0426 h -0.05958 q -0.08511,0.0681 -0.123412,0.0766 l -0.01702,-0.017 -0.0766,0.0809 q -0.110645,0.0723 -0.174479,0.14043 l -0.106389,-0.0213 -0.268102,0.21278 v 0.0426 h -0.06383 q -0.165968,0.17448 -0.259591,0.21703 l -0.01702,0.0426 -0.04256,0.017 -0.0383,0.0979 -0.04256,-0.0341 -0.09362,0.0766 -0.01702,-0.0255 -0.04681,0.14044 -0.0766,-0.1149 -0.157457,-0.0255 -0.0766,0.0255 -0.06383,-0.0596 0.08086,-0.14044 0.09362,-0.0426 0.08937,0.0255 0.127667,-0.15746 v -0.12341 l 0.06383,-0.0596 0.04256,-0.15745 0.09788,-0.0979 q 0.05958,-0.0596 0.08086,-0.10213 l 0.05532,-0.14044 0.08085,-0.0511 -0.06383,-0.0426 0.08086,-0.0809 -0.01702,-0.11915 q 0,-0.18299 0.0766,-0.33194 l -0.01702,-0.0425 0.140434,-0.14044 v -0.14043 l -0.04256,-0.1149 0.04256,-0.11916 0.05958,-0.43832 q -0.06809,-0.10214 -0.0766,-0.1532 l 0.0766,-0.0979 -0.02553,-0.10639 0.02553,-0.0936 -0.02553,-0.0809 -0.01702,-0.27661 0.01702,-0.4979 q 0.06809,-0.0766 0.08086,-0.17448 h 0.05958 v -0.0936 l 0.04256,-0.0468 -0.04256,-0.017 0.04256,-0.0426 -0.01702,-0.034 v -0.12341 l -0.02553,-0.0341 q 0.05532,-0.12341 0.140434,-0.24256 l -0.06383,-0.0809 0.02553,-0.0596 0.05532,-0.034 0.02553,0.017 0.03404,-0.0809 -0.09362,-0.0596 0.01702,-0.1915 0.05958,-0.0766 -0.04256,-0.12341 q 0.06383,-0.22554 0.102134,-0.28086 l -0.02553,-0.13618 0.08937,-0.23832 -0.02979,-0.11915 v -0.0979 l 0.02979,-0.0426 -0.06383,-0.0809 0.01702,-0.17022 q 0.05107,-0.0894 0.09788,-0.26385 l -0.03405,-0.0766 -0.106389,-0.0553 -0.01702,-0.11916 -0.174479,0.017 -0.0766,0.10214 q -0.06383,0.1149 -0.136179,0.18724 -0.06809,0.0724 -0.127667,0.16171 h -0.03405 l -0.140434,0.0638 -0.217034,-0.0383 -0.0766,0.0383 -0.08511,-0.0553 q -0.0383,-0.0255 -0.161712,-0.20002 l 0.106389,0.017 0.01702,-0.17448 0.514924,-0.41705 q 0.110645,-0.0255 0.140434,-0.0426 l 0.259591,-0.17447 0.0766,-0.017 q 0.08937,-0.0851 0.09788,-0.14043 l 0.123412,-0.0766 0.153201,-0.20427 0.280868,-0.29363 0.131923,-0.017 0.02553,-0.0809 h 0.0766 q 0.136179,-0.0724 0.191501,-0.0766 z m 0.468114,4.74923 -0.03405,0.017 -0.106389,-0.017 -0.05958,0.017 0.02553,0.0255 -0.05958,0.017 -0.01702,0.034 -0.02553,-0.0511 -0.02128,0.034 -0.09362,-0.034 -0.157457,0.0511 q -0.0383,-0.034 -0.123411,-0.0511 -0.153201,0.0894 -0.200012,0.0979 -0.01277,0.0809 -0.09362,0.11916 l -0.01702,-0.0255 -0.04681,0.0638 -0.01702,-0.0383 -0.01702,0.017 -0.0766,-0.0766 h -0.04256 l -0.02128,-0.0426 h -0.0766 q -0.0383,0.15746 -0.123411,0.29364 l 0.09788,0.18299 -0.09788,0.39577 0.06383,0.12341 q 0.03405,0.0681 0.03405,0.23406 l -0.01702,0.17022 0.01702,0.10639 -0.10639,0.0766 v 0.54897 h -0.03404 l 0.04256,0.28087 -0.01702,0.0596 0.01702,0.0809 0.09788,-0.0426 0.140434,-0.17447 0.18299,-0.12342 0.293634,-0.34895 0.0383,-0.0596 0.0766,-0.0255 q 0.08937,-0.12766 0.106389,-0.17447 l 0.05958,-0.0383 0.191501,-0.21704 0.01702,-0.0851 h 0.165967 l -0.02553,-0.1149 0.09362,-0.0681 0.04681,-0.13192 0.1532,-0.0766 0.18299,-0.31492 0.0383,-0.0425 v -0.0383 l 0.05958,-0.18299 -0.0766,-0.25108 q -0.272357,-0.0851 -0.331935,-0.18299 z" />
        <path
           id="path1402"
           style="font-style:normal;font-variant:normal;font-weight:normal;font-stretch:normal;font-size:8.71542px;line-height:48.5%;font-family:'Viner Hand ITC';-inkscape-font-specification:'Viner Hand ITC';fill:#793c1b;fill-opacity:1;stroke-width:0.308846px"
           d="m 95.982783,183.2688 q 0.02979,-0.009 0.165968,0.009 0.136178,0.017 0.174478,0.0596 l 0.14469,-0.034 0.08086,0.009 0.05958,0.1149 -0.0085,0.0851 q -0.08511,0.0681 -0.114901,0.14895 h -0.04256 l -0.04681,0.0511 q -0.02128,0.0213 -0.178734,0.0724 l -0.0085,0.79154 0.06809,0.40853 0.0085,0.4213 0.06383,0.51493 0.268101,0.73196 q 0.07234,0.0808 0.09788,0.12766 0.212779,-0.11915 0.268102,-0.11915 0.174478,-0.20001 0.225545,-0.20853 v -0.0468 l 0.48088,-0.40853 0.0085,-0.0766 q 0.04681,-0.009 0.182989,-0.16597 l 0.157457,0.034 0.08511,0.19151 -0.03404,0.16596 -0.08511,-0.034 -0.04256,0.0936 h -0.08086 q -0.04681,0.12767 -0.140434,0.20852 v 0.0468 l -0.234056,0.21703 -0.04256,0.11065 q -0.08086,0.0553 -0.272357,0.14894 l -0.03405,0.0638 -0.0085,-0.0213 -0.05107,0.0894 -0.1149,0.0341 -0.01702,0.0596 h -0.05958 l 0.02553,0.0638 -0.06809,0.13192 -0.06383,0.017 q 0.0085,0.0681 -0.140434,0.25108 l -0.200012,0.009 -0.04256,0.12342 -0.123412,0.034 q -0.140434,-0.0383 -0.225545,-0.17448 l -0.285124,-0.46386 -0.272357,-0.60854 0.02553,-0.22555 -0.05958,-0.20001 0.04256,-0.009 q -0.123412,-0.24682 -0.123412,-0.37449 l 0.02128,-0.15746 -0.131923,-0.0808 -0.08937,0.0553 v -0.0213 l -0.04256,0.0213 -0.114901,0.29363 -0.05958,-0.0255 -0.01702,0.0596 -0.04256,-0.017 v 0.0383 h -0.01702 q -0.0043,0.0255 -0.123412,0.21703 l -0.03404,-0.017 -0.02553,0.18299 -0.08937,0.0468 q -0.08937,0.0468 -0.1149,0.11064 l -0.03405,0.0851 0.0383,0.0511 -0.09788,0.034 -0.04256,0.17448 -0.07235,0.0383 0.02128,0.034 q -0.102134,0.0766 -0.165967,0.10213 l -0.0383,0.0638 -0.03405,-0.0468 -0.05958,0.14894 h -0.05107 l -0.07234,0.24682 -0.0766,0.0255 -0.0085,0.12767 H 93.69752 l -0.123412,0.28086 -0.05958,0.0426 h -0.05107 l -0.01702,0.0809 -0.272357,0.10213 -0.285123,0.009 -0.123412,-0.80856 0.05107,-0.10639 0.01277,-0.0851 q 0.0043,-0.034 0.102133,-0.25533 l -0.01702,-0.0596 q 0.0766,-0.17448 0.102134,-0.20853 l -0.03405,-0.017 0.08086,-0.20852 0.0043,-0.0809 q 0.0043,-0.034 0.06383,-0.15745 -0.03404,-0.20427 -0.06809,-0.23406 l 0.03405,-0.0596 0.110645,0.017 q 0.09788,-0.13192 0.123411,-0.14043 l 0.02553,-0.0766 h 0.01702 l -0.05958,-0.0894 0.05107,-0.22554 0.03404,0.017 q 0.05107,-0.13192 0.06383,-0.13192 l -0.01702,-0.11065 0.119156,-0.22129 v -0.0596 l -0.02553,-0.0511 0.174478,-0.37449 0.200012,-0.27236 q 0.102134,-0.0894 0.174479,-0.20001 l 0.148945,-0.0596 0.200012,-0.20852 0.191501,-0.11491 h 0.114901 l 0.09362,-0.0255 h 0.131923 l 0.05958,-0.0979 0.123412,0.009 h 0.123412 v -0.034 q 0.05107,0.004 0.110645,0.0426 l 0.131923,-0.0511 0.09788,0.0255 0.02553,-0.034 0.102134,0.034 z m -1.097938,0.67238 -0.10639,0.017 -0.131923,-0.009 -0.04255,0.0766 v 0.0638 q -0.06809,0.034 -0.148945,0.0596 l -0.0766,0.1915 q -0.05958,0.25533 -0.07235,0.25959 h -0.04255 l -0.05958,0.14043 -0.02979,0.11916 q -0.01277,0.0553 -0.08511,0.0894 l -0.04256,0.14894 -0.06809,0.12767 q -0.0383,0.0723 -0.0383,0.1532 v 0.034 l -0.04256,-0.034 v 0.0681 h -0.02553 l 0.0085,0.0425 -0.03404,0.0724 -0.05107,0.22554 -0.08937,0.18299 -0.01702,0.25959 -0.02553,0.0383 h -0.01702 l -0.01702,0.0766 0.03404,0.034 -0.04255,0.15746 h -0.01702 l 0.01702,0.0511 h -0.06383 l 0.0085,0.31492 0.0383,0.14894 h 0.01702 l 0.09362,-0.0894 0.246824,-0.34895 0.44258,-0.58302 0.131923,-0.14043 0.293634,-0.47663 0.306402,-0.40853 0.02553,-0.0894 -0.05958,-0.0766 0.110645,-0.1915 0.02553,-0.14469 q 0.0043,-0.0213 0.07234,-0.11064 l 0.0085,-0.34045 -0.114901,-0.009 h -0.09362 l -0.123411,-0.0851 -0.02553,0.0426 z" />
        <path
           id="path1404"
           style="font-style:normal;font-variant:normal;font-weight:normal;font-stretch:normal;font-size:8.71542px;line-height:48.5%;font-family:'Viner Hand ITC';-inkscape-font-specification:'Viner Hand ITC';fill:#793c1b;fill-opacity:1;stroke-width:0.308846px"
           d="m 102.14911,181.03888 0.12341,0.017 0.017,0.0596 0.0596,0.017 -0.017,0.17448 v 0.0638 l -0.0596,0.0596 -0.0128,0.13617 q -0.0128,0.12342 -0.0851,0.20427 l 0.0553,0.0341 -0.0979,0.0426 v 0.0979 l -0.0936,0.0936 v 0.15746 l -0.0298,-0.017 -0.0511,0.10639 -0.0213,0.17447 q -0.004,0.0341 -0.0638,0.11916 l 0.0255,0.0979 -0.0383,0.10639 q -0.0255,0.0681 -0.0553,0.0979 l -0.0894,0.0894 v 0.15746 l 0.0426,0.017 -0.0426,0.24683 0.0255,0.0511 -0.10639,0.18299 v 0.15746 l -0.0766,0.0766 v 0.20001 l -0.0979,0.14044 v 0.0808 l 0.0383,0.034 -0.0213,0.11915 0.0468,0.0638 q -0.0638,0.13192 -0.18299,0.17447 l -0.017,0.11916 0.0596,0.0383 -0.12341,0.0766 0.017,0.0894 -0.017,0.11064 q 0.22554,-0.017 0.26384,-0.034 l 0.0766,0.034 -0.35747,0.43833 -0.11915,0.47662 -0.0809,0.0511 0.017,0.14043 -0.034,0.0426 0.017,0.0638 -0.017,0.034 v 0.18299 l 0.017,0.1149 h -0.034 l -0.0255,0.10213 -0.0638,0.0511 h -0.034 v 0.22129 l 0.0808,0.0426 -0.0979,0.14044 h 0.0341 l -0.017,0.0766 0.0638,0.0808 v 0.0766 l 0.0596,0.0596 -0.0255,0.14044 0.0426,0.0808 v 0.31066 l -0.0596,0.017 0.0596,0.14044 v 0.12341 l 0.0766,0.29363 0.25533,0.54897 h -0.017 l 0.13618,0.12341 q 0.12341,0.20001 0.20427,0.31492 0.13192,0.0723 0.1532,0.12341 h 0.0383 v 0.0426 l 0.0851,0.0511 h 0.0511 l 0.0808,0.0596 q 0.17448,-0.0426 0.24257,-0.1915 0.0894,-0.0128 0.21704,-0.11916 l 0.0809,0.13618 -0.0638,0.0213 v 0.0766 l -0.0766,0.0425 0.017,0.0979 v 0.0766 l 0.0596,-0.017 v 0.14043 l -0.11916,0.0596 0.0255,0.0341 -0.0596,0.017 -0.0298,0.0468 0.0298,0.034 h -0.0638 l 0.017,0.0426 q -0.10639,0.0255 -0.25108,0.12341 -0.0426,-0.0213 -0.20001,-0.20001 l -0.17448,0.0596 -0.0894,-0.10639 -0.0341,-0.0766 -0.0255,-0.0213 q -0.017,-0.0128 -0.034,-0.0468 -0.0128,-0.0298 -0.0341,-0.0724 v -0.0766 l -0.0638,-0.0979 v -0.0426 l -0.0766,-0.0511 -0.43407,-0.54046 -0.26385,-0.47236 0.0255,-0.0596 -0.10214,-0.15746 0.0766,-0.0426 -0.034,-0.0809 -0.0255,-0.21703 -0.034,-0.0766 -0.0468,-0.17448 -0.0766,-0.1149 q -0.017,-0.0255 -0.0298,-0.13193 l -0.0298,-0.23405 v -0.17448 h -0.0213 l 0.0468,-0.18299 -0.0255,-0.0936 -0.1149,-0.017 0.0341,-0.0809 0.0425,0.034 -0.0596,-0.25108 -0.0766,0.0936 0.0766,-0.25108 h -0.0596 v 0.017 l -0.0638,-0.017 -0.1915,0.1915 -0.01702,-0.017 -0.119156,0.0596 v 0.0809 l -0.09788,0.0766 v 0.0426 h -0.05958 l -0.07234,0.0553 q -0.03405,0.0255 -0.148945,0.0426 l 0.02128,0.0936 -0.09788,0.0638 q -0.04256,0.17022 -0.106389,0.23406 v 0.0596 l -0.0766,0.0638 v 0.0936 l -0.0766,-0.017 -0.114901,0.23406 -0.165967,0.0638 -0.03404,0.0766 -0.08086,0.017 v 0.0298 l -0.119156,0.0511 h -0.01702 q -0.04256,-0.14469 -0.09788,-0.1915 v 0.034 q -0.09362,-0.12767 -0.140434,-0.15746 l -0.02553,-0.21703 0.02553,-0.0979 v -0.0596 q -0.02979,-0.0723 -0.05958,-0.0979 l 0.03404,-0.0596 v -0.0596 l 0.02553,-0.12341 -0.0766,-0.0766 0.0766,-0.0553 q -0.05958,-0.12342 -0.05958,-0.2596 v -0.0596 l 0.01702,-0.0979 -0.03405,-0.10214 0.0766,-0.13192 -0.04256,-0.26384 h 0.04256 l 0.0383,-0.13618 v -0.0638 h 0.04256 v -0.39151 l 0.05958,-0.0425 0.01702,-0.19151 v -0.0808 h 0.140434 l 0.03404,-0.21704 0.140434,0.0341 0.09788,-0.25108 v -0.0766 l 0.02553,0.034 q 0.05532,-0.0936 0.136179,-0.33193 l 0.05532,-0.0426 v -0.0638 l 0.02553,0.0638 0.01702,-0.12341 0.0766,-0.017 0.04681,-0.0979 v -0.0426 l 0.05958,-0.017 q 0.02553,-0.0596 0.234057,-0.23405 l 0.01702,0.034 0.06383,-0.0766 0.0766,0.0255 0.03404,-0.0255 v -0.0383 l 0.04681,0.017 0.05958,-0.17448 0.191504,0.0553 -0.017,-0.017 h 0.12341 l -0.0298,-0.017 0.0638,-0.0213 0.20853,0.0298 0.25108,0.14469 h -0.0851 l 0.16596,0.0468 v 0.034 l 0.11065,0.12341 q 0.0511,0.18299 0.0808,0.1915 l 0.0596,-0.0213 0.0426,-0.11915 0.0808,-0.0341 v -0.20001 l 0.017,-0.0638 0.0596,-0.017 -0.017,-0.14043 0.034,-0.0596 0.0979,-0.0511 -0.034,-0.0809 0.017,-0.0255 -0.0808,-0.0341 v -0.79154 l 0.0638,-0.0638 q 0.017,-0.0851 0.034,-0.11064 l -0.017,-0.0298 v -0.23406 l -0.0979,0.0596 -0.0766,-0.017 q -0.017,0.017 -0.10639,0.0383 l -0.017,0.0766 -0.12341,0.0596 h -0.0511 l -0.10213,-0.0766 -0.0553,-0.15745 -0.0426,-0.0255 0.0426,-0.0511 -0.0426,-0.12341 0.0426,-0.0596 0.0808,-0.017 0.017,-0.0638 0.0766,-0.017 0.0808,-0.14043 h 0.0426 l 0.017,-0.0426 0.31491,-0.23406 0.017,-0.034 h 0.14044 v -0.0468 l 0.0426,0.0468 h 0.0596 l 0.017,-0.0638 q 0.0809,-0.0128 0.14044,-0.0596 z m -2.1363,3.24275 -0.03404,0.11065 -0.276612,0.14043 -0.123412,0.25959 -0.05958,0.0383 h -0.01702 l -0.0383,0.0596 -0.02553,-0.017 -0.03405,0.0936 0.03405,0.0468 q -0.03405,0.21278 -0.0766,0.25108 v 0.0766 q -0.07234,0.0553 -0.1149,0.20427 h -0.04256 v 0.0936 l -0.05958,0.18299 0.04256,0.0979 q -0.08511,0.23831 -0.140434,0.31917 l 0.03404,0.0553 v 0.15745 l 0.04681,0.0426 -0.06383,0.0936 0.01702,0.12341 0.08086,0.0936 v -0.0341 l 0.05958,0.0341 0.123412,-0.0511 0.03405,0.017 0.217034,-0.25959 0.05958,-0.017 v -0.017 l 0.123412,-0.12341 0.140434,-0.0596 0.09362,-0.1149 0.0638,-0.0255 0.20001,-0.17447 0.2681,-0.20002 0.0553,-0.16596 q 0.009,-0.0255 0.11065,-0.13193 0.034,-0.16596 0.0979,-0.25108 l -0.12342,-0.14043 -0.017,-0.31491 -0.017,-0.10214 v -0.034 q -0.0468,-0.0638 -0.0596,-0.12341 h -0.0638 l -0.017,0.0936 -0.10213,-0.017 v -0.0936 l -0.0383,0.017 -0.017,-0.0596 -0.11916,0.0426 -0.12341,-0.0426 -0.017,-0.0979 z" />
        <path
           id="path1406"
           style="font-style:normal;font-variant:normal;font-weight:normal;font-stretch:normal;font-size:8.71542px;line-height:48.5%;font-family:'Viner Hand ITC';-inkscape-font-specification:'Viner Hand ITC';fill:#793c1b;fill-opacity:1;stroke-width:0.308846px"
           d="m 104.44287,183.56669 0.10639,0.017 h 0.017 l -0.017,0.0426 h 0.034 l 0.0596,0.0596 0.20001,0.017 h 0.20002 l 0.1149,0.0638 h 0.0426 l 0.0638,0.21703 -0.0894,0.0766 v 0.0809 l 0.14043,0.14043 -0.017,0.39151 h -0.0596 l -0.0213,0.0766 h -0.017 v 0.12342 l 0.0809,0.017 0.034,0.0426 -0.0511,0.0809 v 0.0596 l -0.10639,0.0511 -0.0766,0.0638 -0.22129,0.11915 q -0.0894,0.0936 -0.1532,0.14044 l -0.0638,0.17448 -0.37449,0.14894 -0.37449,-0.009 0.017,0.0936 h -0.0766 l -0.017,0.0255 -0.18299,0.0383 -0.017,-0.0638 -0.0638,0.0255 v 0.0383 l -0.15745,0.0596 -0.0596,0.17447 0.0809,0.21704 v 0.10639 l 0.0425,0.0936 q -0.0851,0.25108 -0.12341,0.26385 l 0.0255,0.0766 -0.0425,0.017 0.0979,0.0426 v 0.13192 l 0.0851,0.0596 q 0.21278,-0.0638 0.25959,-0.0936 l 0.0638,0.0596 0.017,-0.017 q 0.17448,-0.017 0.27662,-0.0426 l 0.0298,-0.0511 h 0.10213 l 0.0809,-0.009 0.10214,0.0511 -0.0255,-0.034 h 0.0851 l 0.10639,-0.0894 0.12341,-0.009 h -0.0255 l 0.11916,-0.0511 0.0341,0.0255 0.0638,-0.0596 h 0.0851 l 0.0809,-0.0809 q 0.0936,-0.004 0.30214,-0.11064 v -0.0468 l 0.12341,-0.034 0.13193,-0.1915 0.14043,0.017 q 0.0724,0.0681 0.17022,0.0809 l 0.0638,0.0596 -0.0979,0.18299 0.017,0.1149 -0.13618,0.0766 -0.017,0.0426 -0.20427,0.0255 -0.11064,0.1149 -0.12341,0.009 -0.0341,0.0979 -0.16597,-0.017 -0.0511,0.11916 -0.13193,-0.017 -0.0511,0.0596 q -0.14469,0.0553 -0.14895,0.0638 l -0.0596,-0.0341 -0.0979,0.0936 h -0.14044 l -0.0851,0.0425 h -0.0511 l -0.0638,0.0553 q -0.11064,0.0298 -0.22555,0.0936 l -0.0596,-0.0426 h -0.12342 l -0.0511,0.0426 -0.0468,-0.017 -0.0596,0.017 -0.017,-0.017 -0.0426,0.0979 h -0.1149 l -0.0936,0.0511 q -0.0468,0.0255 -0.20427,0.0426 l -0.0426,0.0426 h -0.0766 l -0.1149,0.017 -0.0851,0.10638 -0.1149,-0.0426 -0.0596,0.0766 -0.0468,-0.0128 q -0.017,-0.004 -0.17022,-0.16171 l 0.017,-0.10213 -0.017,-0.0553 0.017,-0.10213 -0.0638,-0.15746 0.0255,-0.12341 -0.0426,-0.1915 0.0426,-0.15745 -0.0596,-0.24257 -0.017,-0.017 0.017,-0.12341 0.14044,-0.0511 v -0.0851 l -0.0596,-0.0213 0.017,-0.11065 -0.0383,-0.0638 0.0213,-0.10214 0.0596,-0.034 -0.017,-0.0979 0.017,-0.16597 0.034,-0.017 0.0596,-0.20001 0.14043,-0.25108 0.12341,-0.0468 0.017,-0.13618 -0.017,-0.0383 0.017,-0.0766 0.0766,-0.0426 0.0468,-0.14043 h -0.10639 v -0.0511 l 0.0426,-0.0638 -0.017,-0.0596 0.017,-0.0596 h 0.017 v -0.14043 l 0.14043,-0.017 0.0596,-0.12341 0.29789,-0.33194 h 0.0596 q 0.0511,-0.0808 0.13192,-0.13618 l 0.0596,0.017 q 0.0596,-0.0213 0.14043,-0.14043 h 0.0426 l 0.0808,-0.0511 h 0.0341 l 0.0596,-0.0894 z m -0.10213,0.72345 -0.14895,0.0511 -0.1149,-0.0511 q -0.10213,0.0851 -0.16597,0.11916 -0.0128,0.11064 -0.0894,0.18724 -0.0724,0.0766 -0.10214,0.0766 h -0.0766 l 0.0511,0.0936 q -0.0468,0.0851 -0.12341,0.26384 l -0.0681,-0.017 -0.0255,0.11065 0.0255,0.15745 0.0851,0.0468 q 0.0383,0.0213 0.21278,0.0511 l 0.13618,-0.0894 0.28086,-0.0255 0.14895,-0.21704 0.20001,-0.16596 0.0255,-0.31492 -0.0681,-0.10213 -0.009,-0.14894 h -0.0979 z" />
        <path
           id="path1408"
           style="font-style:normal;font-variant:normal;font-weight:normal;font-stretch:normal;font-size:8.71542px;line-height:48.5%;font-family:'Viner Hand ITC';-inkscape-font-specification:'Viner Hand ITC';fill:#793c1b;fill-opacity:1;stroke-width:0.308846px"
           d="m 107.83882,183.52839 0.16596,0.0213 0.23832,-0.0298 v 0.29789 q -0.0724,0.0553 -0.0724,0.1149 -0.11915,0.0681 -0.11915,0.18299 0,0.0511 0.009,0.0766 l -0.0298,0.16597 -0.31917,0.5745 -0.0468,0.28087 -0.0766,0.10214 0.009,0.21703 -0.12341,0.57876 q -0.017,0.017 -0.017,0.034 0,0.0341 0.0425,0.0596 l 0.19576,-0.24257 0.11064,-0.0596 0.0894,-0.20427 0.16597,-0.11916 0.20001,-0.3064 q 0.0809,-0.12341 0.34896,-0.22555 0,-0.0723 0.12766,-0.20852 0.017,-0.004 0.10639,-0.0766 0.0894,-0.0723 0.16597,-0.12341 l -0.017,-0.0298 q 0.3064,-0.16597 0.30214,-0.22555 0.21704,-0.0936 0.28087,-0.21703 0.3064,-0.28087 0.44258,-0.29789 0.0341,-0.004 0.11065,-0.0383 0.0808,-0.0383 0.13618,-0.0468 0.0894,-0.1149 0.23405,-0.1149 0.0851,0 0.0851,0.12341 l 0.0128,0.27661 -0.0553,0.15746 -0.009,0.20001 -0.0936,0.23831 -0.0979,0.60004 q -0.017,0.0511 -0.0596,0.0596 l 0.0511,0.1915 -0.0596,0.10639 0.10213,0.0596 -0.034,0.0553 q -0.0255,0.0255 -0.0851,0.13618 0.0426,0.0426 0.0681,0.0808 l -0.0255,0.34045 h 0.017 q 0.0426,0.44683 0.0979,0.45109 l 0.18299,-0.0681 q 0.10639,-0.17448 0.32768,-0.29789 0.0766,-0.0128 0.1149,-0.0511 0.0681,0 0.0851,-0.0426 0.0766,-0.0468 0.13618,-0.0596 0.0596,-0.017 0.25108,-0.1149 l 0.14469,0.034 q 0.0511,0.0468 0.0638,0.0936 -0.1149,0.14043 -0.25108,0.33619 -0.13192,0.19575 -0.18724,0.19575 h -0.11916 l -0.0894,0.13193 -0.21704,0.0425 -0.1915,0.24683 -0.15746,0.0426 -0.60003,0.41705 -0.18299,0.18299 -0.0255,-0.15746 -0.15745,0.009 -0.0553,-0.25959 -0.0851,-0.0681 -0.009,-0.29789 -0.0426,-0.18299 q 0,-0.2298 0.0851,-0.24257 v -0.0213 l 0.0511,-0.20002 -0.009,-0.27661 0.0979,-0.1915 -0.0681,-0.0808 0.13618,-0.15746 0.009,-0.32768 0.0724,-0.15746 -0.12341,-0.16596 0.034,-0.009 v -0.12341 l 0.0809,-0.0425 v -0.0255 l -0.009,-0.0723 v -0.017 q -0.0383,-0.0426 -0.19151,-0.0681 l -0.20426,0.16596 -0.28513,0.13193 -0.41704,0.46811 -0.0638,0.0979 q -0.18724,0.18724 -0.18299,0.20852 l -0.0851,0.0596 q -0.017,0.0851 -0.017,0.1149 l -0.16597,0.1915 -0.17448,0.25108 -0.29789,0.47237 h -0.017 l -0.0511,0.11916 -0.0808,0.28086 q -0.17874,0.14895 -0.31917,0.29789 l -0.14043,0.034 -0.0894,0.14894 -0.0596,0.009 -0.1149,-0.0255 q -0.0936,0 -0.20001,0.0426 l 0.0894,-0.17448 0.0341,-0.15746 q 0.16597,-0.40428 0.25108,-0.73196 h 0.017 v -0.12341 l 0.0894,-0.25108 0.034,-0.21703 h 0.017 l -0.0426,-0.14044 0.0426,-0.26384 0.0298,-0.0936 q 0.0128,-0.0426 0.11916,-0.18299 l -0.0255,-0.1149 0.0511,-0.0766 q -0.0766,-0.20427 -0.0766,-0.3745 l 0.0255,-0.14043 -0.017,-0.0255 v -0.0511 q -0.11915,-0.0809 -0.26384,-0.0809 -0.0468,0 -0.10214,0.0255 -0.0511,0.0255 -0.15745,0.2298 -0.27661,0.0936 -0.32343,0.11916 l -0.0766,-0.16597 q 0,-0.0724 0.0426,-0.11065 0.0468,-0.0383 0.0766,-0.0383 h 0.0724 l 0.0681,-0.0936 0.13193,-0.034 -0.0511,-0.0341 v -0.0468 l 0.16171,0.0255 0.17448,-0.1915 0.24682,-0.14469 0.0426,-0.0553 h 0.0255 l -0.0425,-0.0596 q 0.034,0.017 0.0511,0.017 0.0341,0 0.0341,-0.0766 0.14894,-0.17873 0.31491,-0.20001 0.0511,-0.13192 0.1915,-0.14043 V 183.55 Z" />
      </g>
    </g>
  </g>
</svg>
